<?xml version="1.0" encoding="utf-8"?>
<!-- Generator: Adobe Illustrator 18.0.0, SVG Export Plug-In . SVG Version: 6.00 Build 0)  -->
<!DOCTYPE svg PUBLIC "-//W3C//DTD SVG 1.1//EN" "http://www.w3.org/Graphics/SVG/1.1/DTD/svg11.dtd">
<svg xmlns="http://www.w3.org/2000/svg" version="1.1" width="50" height="50"><svg xmlns:xlink="http://www.w3.org/1999/xlink" version="1.1" id="Ebene_1" x="0" y="0" viewBox="0 0 60 60" enable-background="new 0 0 60 60" xml:space="preserve" width="50" height="50">
<g>
	<path fill="#778692" d="M51.1,8.7v21.3c0,11.7-9.4,21.1-21.1,21.1c-11.7,0-21.1-9.4-21.1-21.1C8.9,18.3,18.3,8.8,30,8.8   c4.7,0,9.1,1.6,12.7,4.2V2.8C38.8,1,34.5,0,30,0C13.4,0,0,13.4,0,30c0,16.6,13.4,30,30,30c16.6,0,30-13.4,30-30   C60,21.7,56.6,14.1,51.1,8.7z"/>
	<path fill="#7CC9D5" d="M30.2,24.6c2.2,0,4.1,1.2,5.1,3.1h7.2c-1.3-5.7-6.3-9.9-12.3-9.9c-7,0-12.7,5.7-12.7,12.7   c0,7,5.7,12.7,12.7,12.7c6,0,11.1-4.2,12.3-9.9h-7.2c-1,1.8-2.9,3-5.1,3c-3.2,0-5.8-2.6-5.8-5.8S26.9,24.6,30.2,24.6z"/>
</g>
</svg></svg>
