<?xml version="1.0" encoding="utf-8"?>
<!-- Generator: Adobe Illustrator 18.0.0, SVG Export Plug-In . SVG Version: 6.00 Build 0)  -->
<!DOCTYPE svg PUBLIC "-//W3C//DTD SVG 1.1//EN" "http://www.w3.org/Graphics/SVG/1.1/DTD/svg11.dtd">
<svg version="1.1" id="Isolationsmodus" xmlns="http://www.w3.org/2000/svg" xmlns:xlink="http://www.w3.org/1999/xlink" x="0px"
	 y="0px" viewBox="0 0 149 149.6" enable-background="new 0 0 149 149.6" xml:space="preserve">
<path fill="#8A959F" d="M126.9,21.6v53c0,29.1-23.5,52.6-52.4,52.6c-28.9,0-52.4-23.6-52.4-52.6c0-29.1,23.5-52.6,52.4-52.6
	c11.8,0,22.7,3.9,31.4,10.5V7c-9.5-4.5-20.2-7-31.4-7C33.4,0,0,33.5,0,74.8c0,41.3,33.4,74.8,74.5,74.8c41.1,0,74.5-33.5,74.5-74.8
	C149,54,140.5,35.2,126.9,21.6z"/>
<path fill="#FFFFFF" d="M73.5,25.8c-27.1,0-49,21.9-49,49s21.9,49,49,49s49-21.9,49-49S100.6,25.8,73.5,25.8z M103.9,76.7L78,102.6
	c-0.5,0.5-1.1,0.7-1.9,0.7c-0.7,0-1.3-0.3-1.8-0.8c-0.5-0.5-0.8-1.1-0.8-1.8V85.2H45c-0.7,0-1.3-0.3-1.8-0.8
	c-0.5-0.5-0.8-1.1-0.8-1.8V67c0-0.7,0.3-1.3,0.8-1.8c0.5-0.5,1.1-0.8,1.8-0.8h28.5V48.9c0-0.8,0.2-1.4,0.7-1.9
	c0.5-0.5,1.1-0.7,1.9-0.7c0.6,0,1.3,0.3,1.9,0.8l25.9,25.9c0.5,0.5,0.7,1.1,0.7,1.9C104.7,75.6,104.4,76.2,103.9,76.7z"/>
</svg>
