<?xml version="1.0" encoding="utf-8"?>
<!-- Generator: Adobe Illustrator 18.0.0, SVG Export Plug-In . SVG Version: 6.00 Build 0)  -->
<!DOCTYPE svg PUBLIC "-//W3C//DTD SVG 1.1//EN" "http://www.w3.org/Graphics/SVG/1.1/DTD/svg11.dtd">
<svg version="1.1" id="Logo" xmlns="http://www.w3.org/2000/svg" xmlns:xlink="http://www.w3.org/1999/xlink" x="0px" y="0px"
	 viewBox="0 0 491.9 275" enable-background="new 0 0 491.9 275" xml:space="preserve">
<g id="Logo">
	
		<image overflow="visible" opacity="0.5" width="2175" height="1271" xlink:href="A45A8F1C7BD5EB5E.png"  transform="matrix(0.24 0 0 0.24 -12 -13)">
	</image>
	<g>
		<g>
			<g>
				<g>
					<g>
						<path fill="#FFFFFF" d="M2.3,274.8l-2.2,0L0,256.6l2.2,0L2.3,274.8z"/>
						<path fill="#FFFFFF" d="M17.8,274.7l-2.2,0l-0.1-8.2c0-2.1-1.2-3.6-3.3-3.6c-2,0-3.5,1.5-3.5,3.6l0.1,8.3l-2.2,0l-0.1-13.6
							l2.2,0l0,1.5c0.9-1.1,2.3-1.8,3.9-1.8c3.3,0,5.2,2.3,5.2,5.7L17.8,274.7z"/>
						<path fill="#FFFFFF" d="M32.6,269.3c0,3.3-2.4,5.7-5.7,5.7c-3.3,0-5.7-2.3-5.8-5.7l-0.1-11.1l2.2,0l0,2.9l9.1-0.1l0,2.1
							l-9.1,0.1l0,6c0,2.1,1.4,3.5,3.5,3.5c2.1,0,3.5-1.5,3.5-3.6l0-1.2l2.2,0L32.6,269.3z"/>
						<path fill="#FFFFFF" d="M48.3,270.3c-0.9,2.9-3.2,4.5-6.3,4.6c-3.9,0-6.9-3.1-7-7c0-3.9,3-7.2,6.7-7.2c3.5,0,6.9,2.9,6.9,7.7
							l-11.4,0.1c0.3,2.8,2.5,4.5,4.7,4.4c1.9,0,3.3-0.9,4-2.5L48.3,270.3z M46.1,266.4c-0.6-2.2-2.4-3.7-4.4-3.7
							c-1.9,0-3.8,1.4-4.4,3.7L46.1,266.4z"/>
						<path fill="#FFFFFF" d="M62.6,267.2l-2.2,0l0-1c0-2.1-1.2-3.6-3.3-3.6c-2,0-3.5,1.5-3.5,3.6l0.1,8.3l-2.2,0L51.3,261l2.1,0
							l0,1.5c0.9-1.1,2.3-1.8,3.9-1.8c3.3,0,5.2,2.3,5.2,5.7L62.6,267.2z"/>
						<path fill="#FFFFFF" d="M76.7,274.4l-2.2,0l-0.1-8.2c0-2.1-1.2-3.6-3.3-3.6c-2,0-3.5,1.5-3.5,3.6l0.1,8.3l-2.2,0l-0.1-13.6
							l2.2,0l0,1.5c0.9-1.1,2.3-1.8,3.9-1.8c3.3,0,5.2,2.3,5.2,5.7L76.7,274.4z"/>
						<path fill="#FFFFFF" d="M93.1,274.3l-2.2,0l0-2.2c-0.9,1.4-2.7,2.5-4.7,2.6c-3.9,0-6.8-3.1-6.8-7.1c0-3.9,2.8-7.2,6.7-7.2
							c2,0,3.7,1.1,4.7,2.5l0-2.2l2.1,0L93.1,274.3z M86.2,262.5c-2.5,0-4.5,2.3-4.5,5.1c0,2.7,2,4.9,4.6,4.9c2.5,0,4.6-2.3,4.6-5
							C90.8,264.8,88.7,262.5,86.2,262.5z"/>
						<path fill="#FFFFFF" d="M108,268.8c0,3.3-2.4,5.7-5.7,5.7c-3.3,0-5.7-2.3-5.7-5.7l-0.1-11.1l2.2,0l0,2.9l9.1-0.1l0,2.1
							l-9.1,0.1l0,6c0,2.1,1.4,3.5,3.5,3.5c2.1,0,3.5-1.5,3.5-3.6l0-1.2l2.2,0L108,268.8z"/>
						<path fill="#FFFFFF" d="M113.6,258.5l-2.2,0l0-2.7l2.2,0L113.6,258.5z M113.7,274.2l-2.2,0l-0.1-13.6l2.2,0L113.7,274.2z"/>
						<path fill="#FFFFFF" d="M130.1,267.3c0,3.9-2.9,7.1-6.7,7.1c-3.8,0-6.8-3.1-6.8-7c0-3.9,2.9-7.2,6.7-7.2
							C127.1,260.2,130.1,263.4,130.1,267.3z M127.9,267.3c0-2.8-2.1-5.1-4.6-5.1c-2.5,0-4.5,2.3-4.5,5.1c0,2.8,2.1,5,4.6,5
							C125.8,272.3,127.9,270.1,127.9,267.3z"/>
						<path fill="#FFFFFF" d="M144.3,274l-2.2,0l-0.1-8.2c0-2.1-1.2-3.6-3.3-3.6c-2,0-3.5,1.5-3.5,3.6l0.1,8.3l-2.2,0l-0.1-13.6
							l2.2,0l0,1.5c0.9-1.1,2.3-1.8,3.9-1.8c3.3,0,5.2,2.3,5.2,5.7L144.3,274z"/>
						<path fill="#FFFFFF" d="M160.6,273.9l-2.1,0l0-2.2c-0.9,1.4-2.7,2.5-4.7,2.6c-3.9,0-6.8-3.1-6.8-7.1c0-3.9,2.8-7.2,6.7-7.2
							c2,0,3.7,1.1,4.7,2.5l0-2.2l2.2,0L160.6,273.9z M153.7,262.1c-2.5,0-4.5,2.3-4.5,5.1c0,2.7,2,4.9,4.6,4.9c2.5,0,4.6-2.3,4.6-5
							C158.3,264.4,156.2,262.1,153.7,262.1z"/>
						<path fill="#FFFFFF" d="M166.6,273.8l-2.2,0l-0.1-19.6l2.2,0L166.6,273.8z"/>
						<path fill="#FFFFFF" d="M180.5,273.7l-2.2,0l-0.1-18.3l7.7,0c3.7,0,5.9,2.3,5.9,5.5c0,3.2-2.1,5.5-5.8,5.6l-5.4,0L180.5,273.7
							z M180.4,257.6l0,6.8l5.4,0c2.1,0,3.6-1,3.6-3.4c0-2.4-1.5-3.4-3.7-3.4L180.4,257.6z"/>
						<path fill="#FFFFFF" d="M205.6,266.3l-2.2,0l0-1c0-2.1-1.2-3.6-3.3-3.6c-2,0-3.5,1.5-3.5,3.6l0.1,8.3l-2.2,0l-0.1-13.6l2.2,0
							l0,1.5c0.9-1.1,2.3-1.8,3.9-1.8c3.3,0,5.2,2.3,5.2,5.7L205.6,266.3z"/>
						<path fill="#FFFFFF" d="M221,266.8c0,3.9-2.9,7.1-6.7,7.1c-3.8,0-6.8-3.1-6.8-7c0-3.9,2.9-7.2,6.7-7.2
							C218,259.6,221,262.8,221,266.8z M218.8,266.8c0-2.8-2.1-5.1-4.6-5.1c-2.5,0-4.5,2.3-4.5,5.1c0,2.8,2.1,5,4.6,5
							C216.8,271.8,218.8,269.5,218.8,266.8z"/>
						<path fill="#FFFFFF" d="M243,273.4l-2.2,0l-0.1-8.5c0-2.1-1-3.4-3.1-3.4c-1.8,0-3.2,1.5-3.1,3.6l0.1,8.3l-2.2,0l-0.1-8.5
							c0-2.1-1.1-3.4-3.1-3.4c-1.8,0-3.2,1.5-3.2,3.6l0.1,8.3l-2.2,0l-0.1-13.6l2.2,0l0,1.5c0.8-1.1,2.1-1.8,3.6-1.8
							c1.9,0,3.3,0.8,4.2,2.3c0.8-1.4,2.3-2.3,4.2-2.3c3.1,0,5,2.1,5,5.5L243,273.4z"/>
						<path fill="#FFFFFF" d="M259.3,266.5c0,3.9-2.9,7.1-6.7,7.1c-3.8,0-6.8-3.1-6.8-7c0-3.9,2.9-7.2,6.7-7.2
							C256.4,259.4,259.3,262.6,259.3,266.5z M257.1,266.5c0-2.8-2.1-5.1-4.6-5.1c-2.5,0-4.5,2.3-4.5,5.1c0,2.8,2.1,5,4.6,5
							C255.1,271.5,257.1,269.3,257.1,266.5z"/>
						<path fill="#FFFFFF" d="M273.6,267.8c0,3.3-2.4,5.7-5.7,5.7c-3.3,0-5.7-2.3-5.8-5.7l-0.1-11.1l2.2,0l0,2.9l9.1-0.1l0,2.1
							l-9.1,0.1l0,6c0,2.1,1.4,3.5,3.5,3.5c2.1,0,3.5-1.5,3.5-3.6l0-1.2l2.2,0L273.6,267.8z"/>
						<path fill="#FFFFFF" d="M279.2,257.5l-2.2,0l0-2.7l2.2,0L279.2,257.5z M279.3,273.1l-2.2,0l-0.1-13.6l2.2,0L279.3,273.1z"/>
						<path fill="#FFFFFF" d="M295.7,266.3c0,3.9-2.9,7.1-6.7,7.1c-3.8,0-6.8-3.1-6.8-7c0-3.9,2.9-7.2,6.7-7.2
							C292.7,259.1,295.6,262.3,295.7,266.3z M293.4,266.3c0-2.8-2.1-5.1-4.6-5.1c-2.5,0-4.5,2.3-4.5,5.1c0,2.8,2.1,5,4.6,5
							C291.4,271.3,293.4,269.1,293.4,266.3z"/>
						<path fill="#FFFFFF" d="M309.8,272.9l-2.2,0l0-8.2c0-2.1-1.2-3.6-3.3-3.6c-2,0-3.5,1.5-3.5,3.6l0.1,8.3l-2.2,0l-0.1-13.6
							l2.2,0l0,1.5c0.9-1.1,2.3-1.8,3.9-1.8c3.3,0,5.2,2.3,5.2,5.7L309.8,272.9z"/>
						<path fill="#FFFFFF" d="M336.2,272.8l-2.9,0l-1.3-1.6c-1.3,1.2-3,2-5,2c-3.4,0-6.4-2.3-6.5-5.5c0-2.8,1.8-4.4,3.9-5.6
							l-0.3-0.4c-0.9-1.1-1.5-2.2-1.5-3.4c0-2.3,1.9-4.1,4.3-4.1c2.4,0,4.2,1.6,4.2,3.9c0,2.1-1.4,3.3-3.4,4.5l4.1,4.9
							c0.2-0.6,0.3-1.2,0.3-1.9l0-1.4l2.1,0l0,1.4c0,1.4-0.3,2.7-0.8,3.7L336.2,272.8z M325.7,263.7c-2.1,1.3-2.9,2.5-2.9,4
							c0,1.8,1.8,3.4,4.2,3.4c1.5,0,2.8-0.5,3.7-1.5L325.7,263.7z M325.8,260.2l0.6,0.7c2-1.1,2.5-1.9,2.5-2.9c0-1.1-0.8-1.9-2-1.9
							c-1.1,0-2,0.9-2,2.1C324.9,258.9,325.2,259.6,325.8,260.2z"/>
						<path fill="#FFFFFF" d="M360.2,254.4l0.1,18.3l-2.2,0l-0.1-8.5l-10,0.1l0.1,8.5l-2.2,0l-0.1-18.3l2.2,0l0,7.6l10-0.1l0-7.6
							L360.2,254.4z"/>
						<path fill="#FFFFFF" d="M378,272.5l-2.2,0l0-4.5c0-1.2-0.4-2.7-3.1-2.7l-5.8,0l0,7.2l-2.2,0l-0.1-18.3l8,0
							c3.7,0,5.9,2.2,5.9,5.5c0,1.9-0.9,3.5-2.4,4.5c1.2,0.7,1.9,2,1.9,3.8L378,272.5z M372.7,263.2c2,0,3.6-1.2,3.5-3.4
							c0-2.3-1.4-3.4-3.7-3.4l-5.8,0l0,6.8L372.7,263.2z"/>
						<path fill="#FFFFFF" d="M394.3,272.8c-3.3,0-5.7-1.7-6.1-4.6l2.3,0c0.3,1.6,1.8,2.5,3.8,2.5c2.1,0,3.4-1,3.4-2.2
							c0-0.9-0.4-1.7-3.7-2.1c-3.3-0.5-5.3-1.2-5.3-3.8c0-1.9,1.7-4,5.3-4.1c3.1,0,5.2,1.5,5.5,4.2l-2.3,0c-0.3-1.4-1.6-2.2-3.3-2.2
							c-1.8,0-3.1,0.9-3.1,1.9c0,1,0.8,1.3,3.4,1.7c3,0.5,5.5,1,5.5,4.1C399.8,271,397.5,272.8,394.3,272.8z"/>
						<path fill="#FFFFFF" d="M415,268.1c-0.9,2.9-3.2,4.5-6.3,4.6c-3.9,0-6.9-3.1-7-7c0-3.9,3-7.2,6.7-7.2c3.5,0,6.9,2.9,6.9,7.7
							l-11.4,0.1c0.3,2.8,2.5,4.5,4.7,4.4c1.9,0,3.3-0.9,4-2.5L415,268.1z M412.8,264.1c-0.6-2.2-2.4-3.7-4.4-3.7
							c-1.9,0-3.8,1.4-4.4,3.7L412.8,264.1z"/>
						<path fill="#FFFFFF" d="M429.3,265l-2.2,0l0-1c0-2.1-1.2-3.6-3.3-3.6c-2,0-3.5,1.5-3.5,3.6l0.1,8.3l-2.2,0l-0.1-13.6l2.1,0
							l0,1.5c0.9-1.1,2.3-1.8,3.9-1.8c3.3,0,5.2,2.3,5.2,5.7L429.3,265z"/>
						<path fill="#FFFFFF" d="M437.5,272.2l-2.4,0l-5-13.5l2.4,0l3.8,10.8l3.7-10.8l2.4,0L437.5,272.2z"/>
						<path fill="#FFFFFF" d="M446.7,256.5l-2.2,0l0-2.7l2.2,0L446.7,256.5z M446.8,272.1l-2.2,0l-0.1-13.6l2.2,0L446.8,272.1z"/>
						<path fill="#FFFFFF" d="M456.4,272.4c-3.7,0-6.8-3.1-6.8-7c0-3.9,3-7.2,6.7-7.2c3,0,5.4,1.8,6.3,4.5l-2.4,0
							c-0.8-1.5-2.2-2.4-3.9-2.4c-2.5,0-4.5,2.3-4.5,5c0,2.7,2.1,4.9,4.6,4.9c1.8,0,3.2-0.9,3.9-2.4l2.4,0
							C461.8,270.5,459.5,272.3,456.4,272.4z"/>
						<path fill="#FFFFFF" d="M477.7,267.7c-0.9,2.9-3.2,4.5-6.3,4.6c-3.9,0-6.9-3.1-7-7c0-3.9,3-7.2,6.7-7.2c3.5,0,6.9,2.9,6.9,7.7
							l-11.4,0.1c0.3,2.8,2.5,4.5,4.7,4.4c1.9,0,3.3-0.9,4-2.5L477.7,267.7z M475.5,263.7c-0.6-2.2-2.4-3.7-4.4-3.7
							c-1.9,0-3.8,1.4-4.4,3.7L475.5,263.7z"/>
						<path fill="#FFFFFF" d="M485.7,272.2c-3.3,0-5.7-1.7-6.1-4.6l2.3,0c0.3,1.6,1.8,2.5,3.8,2.5c2.1,0,3.4-1,3.4-2.2
							c0-0.9-0.4-1.7-3.7-2.1c-3.3-0.5-5.3-1.2-5.3-3.8c0-1.9,1.7-4,5.3-4.1c3.1,0,5.2,1.5,5.5,4.2l-2.3,0c-0.3-1.4-1.6-2.2-3.3-2.2
							c-1.8,0-3.1,0.9-3.1,1.9c0,1,0.8,1.3,3.4,1.7c3,0.5,5.5,1,5.5,4.1C491.2,270.5,488.9,272.2,485.7,272.2z"/>
					</g>
					<g>
						<path fill="#FFFFFF" d="M183.7,195.8l16.5-0.1c12.3-0.1,20.3,8.3,20.4,22.2c0.1,13.9-7.8,22.5-20.1,22.6l-16.5,0.1
							L183.7,195.8z M189.2,201l0.2,34.2l11-0.1c8.2-0.1,14.6-5.2,14.5-17.2c-0.1-12.3-6.6-17-14.7-17L189.2,201z"/>
						<path fill="#FFFFFF" d="M260,195.4l0,5.2l-26.4,0.2l0.1,13.5l23.8-0.1l0,5.2l-23.8,0.1l0.1,15.5l26.4-0.2l0,5.3l-31.8,0.2
							l-0.3-44.7L260,195.4z"/>
						<path fill="#FFFFFF" d="M281.5,240.8c-10.3,0.1-17-5.9-17.1-14.9l5.6,0c0,6,4.7,9.7,11.4,9.7c7.6,0,11.3-3.3,11.3-8.3
							c0-3.7-1.7-6.3-11.5-7.9c-9.9-1.7-15.6-4.7-15.6-12.4c0-7.7,6-12.7,15.5-12.7c9.8-0.1,15.8,5.2,15.9,13.8l-5.5,0
							c0-5.2-3.6-8.7-10.3-8.6c-6.9,0-10.1,3.1-10,7.3c0,3.9,2.1,5.8,11.2,7.4c9.8,1.8,15.8,4.5,15.9,13.1
							C298.3,236,291.4,240.7,281.5,240.8z"/>
						<path fill="#FFFFFF" d="M311.7,239.8l-5.5,0l-0.3-44.7l5.5,0L311.7,239.8z"/>
						<path fill="#FFFFFF" d="M363.3,215.1l0.1,24.4l-5.3,0l0-7.6c-3.2,4.9-8.7,8.4-16.3,8.5c-12.3,0.1-22.2-10.3-22.3-23.2
							c-0.1-12.8,9.7-23.3,22-23.4c9.5-0.1,17.2,5.6,20.6,14.8l-5.8,0c-2.9-6-8.2-9.6-14.8-9.5c-9.2,0.1-16.7,8.3-16.6,18.1
							c0.1,9.9,7.6,18,16.9,18c9.5-0.1,15.3-7.2,16.2-14.7l-16,0.1l0-5.3L363.3,215.1z"/>
						<path fill="#FFFFFF" d="M407.6,239.2l-6,0L377.4,203l0.2,36.4l-5.5,0l-0.3-44.8l6.1,0l24.2,36.2l-0.2-36.4l5.4,0L407.6,239.2z
							"/>
						<path fill="#FFFFFF" d="M449.7,194.2l0,5.2l-26.4,0.2l0.1,13.5l23.8-0.1l0,5.2l-23.8,0.1l0.1,15.5l26.4-0.2l0,5.3l-31.8,0.2
							l-0.3-44.8L449.7,194.2z"/>
						<path fill="#FFFFFF" d="M491.6,238.7l-5.5,0c-0.5-1.2-0.9-2.8-0.9-4.8l0-6.1c0-4.3-2.3-6.7-7.4-6.7l-14.6,0.1l0.1,17.7l-5.5,0
							l-0.3-44.7l19.7-0.1c9.1-0.1,14.5,5.5,14.5,13.5c0,4.8-2.3,8.7-6,10.9c3,1.8,4.7,4.9,4.7,9.4l0,5.5
							C490.6,235,491.1,237.4,491.6,238.7z M477.7,215.8c5.3,0,8.7-3.2,8.7-8.3c0-5.8-3.5-8.3-9-8.3l-14.3,0.1l0.1,16.6L477.7,215.8
							z"/>
					</g>
					<g>
						<path fill="#FFFFFF" d="M22.8,242.1C9.6,242.1,0.1,232,0.1,219.3c-0.1-12.7,9.3-23.1,22.4-23.2C33,196,41,201.9,43.6,211.8
							l-12,0.1c-1.5-3-5-5.5-9.1-5.5c-6.2,0-11.2,5.9-11.1,12.9c0,6.9,5.1,12.6,11.3,12.5c4.2,0,7.7-2.6,9.1-5.7l12-0.1
							C41.3,236.1,33.4,242,22.8,242.1z"/>
						<path fill="#FFFFFF" d="M71.5,206.9c-4.5-0.5-8.2,0.1-10.8,2.8c-2.4,2.5-2.8,6.1-2.7,9.6l0.1,21.5l-11.2,0.1L46.7,197
							l10.7-0.1l0,4.3c3.5-4.4,8.8-6.1,14-5.3L71.5,206.9z"/>
						<path fill="#FFFFFF" d="M81.8,223.1c1.5,5.4,5.7,8.6,11,8.6c3.7,0,7.4-1.7,9.2-5.2l12-0.1c-2.5,9-10.2,15-21,15.1
							c-12.3,0.1-22.4-10.1-22.5-22.8c-0.1-12.7,9.9-23.1,22.2-23.2c12.9-0.1,23.6,9.9,22.1,27.3L81.8,223.1z M103.6,213.8
							c-1.4-5.1-5.6-8.3-11-8.3c-5.1,0-9.1,3.3-10.7,8.4L103.6,213.8z"/>
						<path fill="#FFFFFF" d="M165.2,240.2l-11.5,0.1l-8.1-29l-7.7,29.1l-11.6,0.1l-13.8-43.8l11.9-0.1l7.8,30.6l7.8-30.7l11.2-0.1
							l8.2,30.6l7.4-30.7l11.9-0.1L165.2,240.2z"/>
					</g>
					<path fill="#FFFFFF" d="M303.1,23.2v57c0,31.2-25.2,56.5-56.3,56.5c-31.1,0-56.3-25.3-56.3-56.5c0-31.2,25.2-56.5,56.3-56.5
						c12.7,0,24.3,4.2,33.7,11.3V7.5C270.3,2.7,258.9,0,246.8,0c-44.2,0-80,36-80,80.3c0,44.4,35.8,80.3,80,80.3
						c44.2,0,80-36,80-80.3C326.8,58,317.7,37.8,303.1,23.2z"/>
				</g>
				<path fill="#FFFFFF" d="M247.2,65.9c5.9,0,11,3.3,13.7,8.2h19.3c-3.4-15.1-16.8-26.5-32.9-26.5c-18.6,0-33.7,15.2-33.7,33.9
					c0,18.7,15.1,33.9,33.7,33.9c16.1,0,29.5-11.3,32.9-26.4h-19.3c-2.6,4.9-7.8,8.2-13.7,8.2c-8.6,0-15.5-7-15.5-15.6
					C231.7,72.9,238.6,65.9,247.2,65.9z"/>
			</g>
		</g>
	</g>
</g>
</svg>
