<?xml version="1.0" encoding="utf-8"?>
<!-- Generator: Adobe Illustrator 18.0.0, SVG Export Plug-In . SVG Version: 6.00 Build 0)  -->
<!DOCTYPE svg PUBLIC "-//W3C//DTD SVG 1.1//EN" "http://www.w3.org/Graphics/SVG/1.1/DTD/svg11.dtd">
<svg version="1.1" id="Isolationsmodus" xmlns="http://www.w3.org/2000/svg" xmlns:xlink="http://www.w3.org/1999/xlink" x="0px"
	 y="0px" viewBox="0 0 242 242" enable-background="new 0 0 242 242" xml:space="preserve">
<g>
	
		<image overflow="visible" opacity="0.5" width="272" height="273" xlink:href="724D7757E6491ACC.png"  transform="matrix(1 0 0 1 -13 -13)">
	</image>
	<g>
		<path fill="#FFFFFF" d="M121,0C54.2,0,0,54.2,0,121s54.2,121,121,121s121-54.2,121-121S187.8,0,121,0z M121,217.8
			c-53.5,0-96.8-43.3-96.8-96.8S67.5,24.2,121,24.2s96.8,43.3,96.8,96.8S174.5,217.8,121,217.8z"/>
	</g>
</g>
<path fill="#FFFFFF" d="M121-14C46.5-14-14,46.5-14,121s60.5,135,135,135s135-60.5,135-135S195.5-14,121-14z M121,239.5
	C55.5,239.5,2.5,186.5,2.5,121S55.5,2.5,121,2.5S239.5,55.5,239.5,121S186.5,239.5,121,239.5z"/>
<path fill="#8A959F" d="M205.8,35.1v15.5c15.9,19.1,25.5,43.7,25.5,70.4c0,60.9-49.4,110.2-110.2,110.2S10.8,181.9,10.8,121
	S60.1,10.8,121,10.8c18.3,0,35.6,4.5,50.8,12.4V11.3C156.4,4.1,139.2,0,121,0C54.5,0,0.5,54.2,0.5,121s54,121,120.5,121
	c66.6,0,120.5-54.2,120.5-121C241.5,87.3,227.8,56.9,205.8,35.1z"/>
</svg>
