<?xml version="1.0" standalone="no"?>
<!DOCTYPE svg PUBLIC "-//W3C//DTD SVG 1.1//EN" "http://www.w3.org/Graphics/SVG/1.1/DTD/svg11.dtd" >
<svg xmlns="http://www.w3.org/2000/svg" xmlns:xlink="http://www.w3.org/1999/xlink" version="1.1">
<metadata></metadata>
<defs>
<font id="chaletnewyorknineteensixty" horiz-adv-x="1366" >
<font-face units-per-em="2048" ascent="1532" descent="-516" />
<missing-glyph horiz-adv-x="630" />
<glyph unicode="&#xfb01;" horiz-adv-x="1122" d="M16 795v258h127q3 214 128.5 339.5t342.5 100.5v-242q-100 6 -149.5 -42t-50.5 -156h577v-1053h-270v795h-307v-795h-271v795h-127zM721 1169v252h270v-252h-270z" />
<glyph unicode="&#xfb02;" horiz-adv-x="1148" d="M16 795v258h127q3 214 128.5 339.5t342.5 100.5v-242q-100 6 -149.5 -42t-50.5 -156h190v-258h-190v-795h-271v795h-127zM752 0v1524h270v-1524h-270z" />
<glyph unicode="&#xfb03;" horiz-adv-x="1703" d="M16 795v258h127q3 214 128.5 339.5t342.5 100.5v-242q-100 6 -149.5 -42t-50.5 -156h311q3 214 128.5 339.5t342.5 100.5v-242q-100 6 -150 -42t-51 -156h578v-1053h-270v795h-308v-795h-270v795h-311v-795h-271v795h-127zM1303 1169v252h270v-252h-270z" />
<glyph unicode="&#xfb04;" horiz-adv-x="1730" d="M16 795v258h127q3 214 128.5 339.5t342.5 100.5v-242q-100 6 -149.5 -42t-50.5 -156h311q3 214 128.5 339.5t342.5 100.5v-242q-100 6 -150 -42t-51 -156h191v-258h-191v-795h-270v795h-311v-795h-271v795h-127zM1333 0v1524h271v-1524h-271z" />
<glyph horiz-adv-x="0" />
<glyph horiz-adv-x="682" />
<glyph unicode=" "  horiz-adv-x="630" />
<glyph unicode="&#x09;" horiz-adv-x="630" />
<glyph unicode="&#xa0;" horiz-adv-x="630" />
<glyph unicode="!" horiz-adv-x="587" d="M160 0v268h270v-268h-270zM160 424v997h270v-997h-270z" />
<glyph unicode="&#x22;" horiz-adv-x="763" d="M68 1421h264l-47 -587h-172zM434 1421h262l-45 -587h-174z" />
<glyph unicode="#" horiz-adv-x="1101" d="M18 336l29 196h174l51 353h-174l29 194h176l37 267h203l-37 -267h201l36 267h205l-39 -267h174l-28 -194h-174l-52 -353h175l-29 -196h-176l-37 -260h-203l39 260h-203l-37 -260h-202l39 260h-177zM426 532h199l53 353h-201z" />
<glyph unicode="$" horiz-adv-x="1009" d="M57 508h234q0 -76 38 -123.5t101 -65.5v312q-53 12 -96.5 26.5t-93.5 42t-84.5 62.5t-57 88.5t-22.5 118.5q0 147 94.5 244t259.5 114v119h133v-119q162 -20 256 -125t94 -264h-235q0 60 -30 103.5t-85 60.5v-275q68 -16 117 -32.5t101.5 -45t85.5 -64t54 -90.5t21 -124 q0 -157 -100.5 -257.5t-278.5 -119.5v-119h-133v121q-161 20 -267 128t-106 284zM311 975q0 -40 28 -66.5t91 -48.5v244q-56 -12 -87.5 -45.5t-31.5 -83.5zM563 315q65 11 105.5 46.5t40.5 93.5q0 54 -29 87.5t-117 59.5v-287z" />
<glyph unicode="%" horiz-adv-x="1634" d="M45 1063q0 150 103 254t255 104q153 0 256 -104t103 -254q0 -149 -103 -252.5t-256 -103.5q-151 0 -254.5 103.5t-103.5 252.5zM250 1063q0 -68 45 -116t108 -48q64 0 110 48t46 116t-46 116t-110 48q-63 0 -108 -48t-45 -116zM317 0l781 1421h219l-780 -1421h-220z M872 358q0 149 103.5 254t255.5 105q151 0 254.5 -105t103.5 -254q0 -150 -103 -254t-255 -104q-153 0 -256 104t-103 254zM1075 358q0 -67 45.5 -115t110.5 -48q63 0 109 48t46 115t-46 115.5t-109 48.5q-64 0 -110 -48t-46 -116z" />
<glyph unicode="&#x26;" horiz-adv-x="1351" d="M68 426q0 136 78.5 239t197.5 173l-12 14q-99 123 -99 262q0 147 100.5 245.5t254.5 98.5q150 0 247 -97.5t97 -244.5q0 -197 -232 -334l256 -319q31 98 25 254h242q13 -279 -99 -465l201 -252h-313l-62 76q-147 -101 -366 -101q-217 0 -366.5 129t-149.5 322zM322 426 q0 -89 76 -150t186 -61q127 0 213 53l-312 391q-163 -96 -163 -233zM481 1122q0 -67 64 -145l14 -16q129 77 129 172q0 44 -28 72t-74 28q-45 0 -75 -31t-30 -80z" />
<glyph unicode="'" horiz-adv-x="399" d="M68 1421h262l-45 -587h-174z" />
<glyph unicode="(" horiz-adv-x="665" d="M82 690q0 262 97 514.5t255 413.5h215q-148 -193 -229.5 -431.5t-81.5 -496.5t81.5 -496.5t229.5 -431.5h-215q-158 161 -255 413.5t-97 514.5z" />
<glyph unicode=")" horiz-adv-x="665" d="M18 -238q147 193 228.5 431.5t81.5 496.5t-81.5 496.5t-228.5 431.5h213q159 -162 256 -414.5t97 -513.5t-97 -513.5t-256 -414.5h-213z" />
<glyph unicode="*" horiz-adv-x="800" d="M55 1038v158l215 -6l-112 188l137 78l104 -192l105 192l137 -78l-113 -188l217 6v-158l-217 4l113 -184l-137 -80l-105 191l-104 -191l-135 80l110 184z" />
<glyph unicode="+" horiz-adv-x="1073" d="M76 440v252h325v334h271v-334h325v-252h-325v-336h-271v336h-325z" />
<glyph unicode="," horiz-adv-x="479" d="M94 0v289h291v-324q0 -134 -72 -211.5t-192 -89.5v127q62 13 94.5 58t32.5 114v37h-154z" />
<glyph unicode="-" horiz-adv-x="677" d="M61 442v252h555v-252h-555z" />
<glyph unicode="." horiz-adv-x="479" d="M94 0v289h291v-289h-291z" />
<glyph unicode="/" horiz-adv-x="690" d="M4 0l432 1524h281l-432 -1524h-281z" />
<glyph unicode="0" horiz-adv-x="1198" d="M72 698q0 130 21 239t59 187t87.5 136.5t110 93.5t122.5 52t128 17q79 0 152.5 -23.5t142.5 -78.5t119.5 -136.5t81 -206.5t30.5 -280t-30.5 -280t-81 -206.5t-119.5 -136.5t-142.5 -78.5t-152.5 -23.5q-66 0 -128 17t-122.5 52t-110 93.5t-87.5 136.5t-59 187t-21 239z M340 698q0 -35 2 -71t9 -84.5t18 -91t31 -85.5t46.5 -73.5t66 -50t87.5 -19.5t87 19.5t65 50t46 73.5t31 85.5t18 91t9 84.5t2 71q0 53 -4.5 105.5t-20.5 123.5t-42 123t-75.5 89t-115.5 37q-56 0 -100 -25t-71 -68t-46 -91.5t-27.5 -106.5t-12 -101t-3.5 -86z" />
<glyph unicode="1" horiz-adv-x="860" d="M90 991v176q105 2 185 66.5t90 187.5h217v-1421h-271v991h-221z" />
<glyph unicode="2" horiz-adv-x="1153" d="M68 0v121q0 92 24.5 172.5t62.5 139t97.5 112.5t114.5 90t129 76q96 51 156 92t88.5 75.5t37 60.5t8.5 62q0 77 -50.5 127t-151.5 50q-104 0 -165 -71.5t-61 -182.5h-272q0 99 32.5 188.5t93 160t156.5 112.5t214 42t211.5 -37.5t149.5 -99.5t85 -136.5t29 -154.5 q0 -56 -12 -105.5t-29 -88t-51 -76.5t-63 -64t-81 -60t-88.5 -54.5t-101.5 -56.5q-121 -66 -188.5 -124t-73.5 -118h684v-252h-985z" />
<glyph unicode="3" horiz-adv-x="1142" d="M49 455h270q2 -108 66 -169t176 -61q113 0 179.5 56.5t66.5 146.5q0 180 -232 180h-90v236h56q225 0 225 164q0 78 -51.5 124t-143.5 46q-102 0 -156.5 -61t-54.5 -148h-270q0 93 33 176t93 146t152 99.5t203 36.5q114 0 204.5 -33.5t144.5 -90t82 -124.5t28 -143 q0 -94 -46 -170t-134 -118q79 -23 132 -76t74 -114.5t21 -133.5q0 -85 -33.5 -164.5t-96 -143.5t-162.5 -102.5t-222 -38.5q-124 0 -222.5 37.5t-160.5 103t-95.5 152t-35.5 187.5z" />
<glyph unicode="4" horiz-adv-x="1134" d="M49 289v239l557 893h316v-893h151v-239h-151v-289h-252v289h-621zM317 528h353v564z" />
<glyph unicode="5" horiz-adv-x="1126" d="M55 395h273q15 -77 76 -120.5t151 -43.5q97 0 166.5 60t69.5 174q0 106 -63 174t-163 68q-66 0 -124.5 -32.5t-96.5 -90.5l-244 65l84 772h789v-252h-580l-35 -297q108 68 226 68q204 0 340.5 -137t136.5 -346q0 -135 -66 -245.5t-182 -173.5t-258 -63q-214 0 -351 118 t-149 302z" />
<glyph unicode="6" horiz-adv-x="1153" d="M72 641q0 375 143.5 587t398.5 212q187 0 310 -109t153 -295h-272q-13 66 -61.5 110t-129.5 44q-115 0 -183.5 -96t-84.5 -256q114 90 268 90q209 0 346.5 -132t137.5 -339q0 -209 -140.5 -345.5t-357.5 -136.5q-80 0 -153.5 21.5t-142.5 72t-120 125t-81.5 189.5 t-30.5 258zM371 451q0 -99 64 -167.5t165 -68.5t165 68.5t64 167.5q0 100 -64 168.5t-165 68.5t-165 -68.5t-64 -168.5z" />
<glyph unicode="7" horiz-adv-x="1056" d="M35 1169v252h987v-237q-242 -196 -370 -500.5t-128 -683.5h-270q0 369 111 675.5t321 493.5h-651z" />
<glyph unicode="8" horiz-adv-x="1140" d="M63 410q0 111 55 203.5t152 150.5q-147 115 -147 293q0 164 127 273.5t319 109.5t320.5 -109.5t128.5 -273.5q0 -178 -148 -291q98 -58 152.5 -150t54.5 -206q0 -186 -145.5 -310.5t-362.5 -124.5q-142 0 -258 56.5t-182 156.5t-66 222zM326 422q0 -69 37 -118.5 t90.5 -71t115.5 -21.5q63 0 117 21.5t91.5 71t37.5 118.5q0 102 -72.5 155.5t-173.5 53.5q-100 0 -171.5 -53.5t-71.5 -155.5zM379 1040q0 -79 57 -124.5t133 -45.5q78 0 135.5 45.5t57.5 124.5q0 80 -58 123t-135 43t-133.5 -42.5t-56.5 -123.5z" />
<glyph unicode="9" horiz-adv-x="1148" d="M55 952q0 212 140.5 350t357.5 138q83 0 156.5 -22t141 -72t116.5 -125.5t78.5 -190t31.5 -256.5q3 -387 -128 -593t-402 -206q-176 0 -299 95t-160 254h291q16 -44 60 -72.5t110 -28.5q130 0 193 93.5t71 273.5q-42 -52 -119.5 -83.5t-161.5 -31.5q-201 0 -339 134 t-138 343zM324 952q0 -103 64 -174t165 -71t165 71t64 174q0 105 -64 177.5t-165 72.5t-165 -72.5t-64 -177.5z" />
<glyph unicode=":" horiz-adv-x="501" d="M106 0v289h291v-289h-291zM106 729v289h291v-289h-291z" />
<glyph unicode=";" horiz-adv-x="501" d="M106 0v289h291v-324q0 -134 -72 -211.5t-192 -89.5v127q62 13 93.5 58t31.5 114v37h-152zM106 729v289h291v-289h-291z" />
<glyph unicode="&#x3c;" horiz-adv-x="919" d="M63 430v268l793 367v-279l-526 -221l526 -223v-276z" />
<glyph unicode="=" horiz-adv-x="1034" d="M76 211v250h882v-250h-882zM76 670v252h882v-252h-882z" />
<glyph unicode="&#x3e;" horiz-adv-x="921" d="M63 66v276l527 223l-527 221v279l795 -367v-268z" />
<glyph unicode="?" horiz-adv-x="1130" d="M68 991q0 208 133 335.5t358 127.5q222 0 349.5 -115.5t127.5 -300.5q0 -116 -61.5 -198.5t-177.5 -159.5q-71 -47 -101 -95t-30 -114v-47h-248v47q0 62 14 115.5t33 90t52.5 72.5t58.5 56t65 49q70 50 98.5 90.5t28.5 93.5q0 75 -56 121.5t-153 46.5q-107 0 -165 -60 t-58 -155h-268zM406 0v268h270v-268h-270z" />
<glyph unicode="@" horiz-adv-x="1525" d="M63 713q0 206 98 376.5t265.5 267.5t366.5 97q102 0 198 -23.5t182 -73t150 -120.5t101.5 -173t37.5 -222q0 -132 -52.5 -245t-144.5 -179t-200 -66q-70 0 -123.5 30t-83.5 81q-89 -115 -211 -115q-131 0 -195 116.5t-14 285.5q39 137 143 231t212 94q104 0 149 -86 l16 53h185l-123 -397q-16 -51 1 -78.5t52 -27.5q76 0 131.5 90t55.5 207q0 88 -27 161t-72 123t-105.5 84.5t-126.5 50t-136 15.5q-143 0 -264.5 -74.5t-192 -203t-70.5 -279.5q0 -155 71.5 -282t197.5 -199t280 -72q123 0 228.5 41.5t173.5 111.5h243q-214 -340 -645 -340 q-209 0 -381 95.5t-271.5 265.5t-99.5 379zM625 593.5q16 -50.5 61 -50.5q46 0 94.5 50.5t71.5 121.5q23 72 7 122t-62 50q-45 0 -93.5 -49t-72.5 -123q-22 -71 -6 -121.5z" />
<glyph unicode="A" d="M12 0l496 1421h342l496 -1421h-287l-96 285h-568l-96 -285h-287zM479 537h398l-199 583z" />
<glyph unicode="B" horiz-adv-x="1333" d="M131 0v1421h655q210 0 319 -101.5t109 -283.5q0 -178 -139 -278q93 -48 144 -134.5t51 -205.5q0 -191 -121 -304.5t-326 -113.5h-692zM401 248h385q89 0 148 42t59 138q0 89 -55 137.5t-158 48.5h-379v-366zM401 862h385q70 0 118 44.5t48 113.5q0 71 -45 113.5 t-121 42.5h-385v-314z" />
<glyph unicode="C" horiz-adv-x="1449" d="M68 717q0 205 90.5 375t248.5 268t349 98q239 0 409.5 -126.5t237.5 -346.5h-293q-49 101 -142 163t-212 62q-114 0 -210.5 -67t-152 -180.5t-55.5 -245.5q0 -133 55.5 -247t152 -181.5t210.5 -67.5q117 0 210.5 64.5t143.5 165.5h291q-68 -219 -239.5 -347.5 t-405.5 -128.5q-143 0 -270.5 58t-219 156.5t-145 236.5t-53.5 291z" />
<glyph unicode="D" d="M131 0v1421h526q296 0 468.5 -191t172.5 -519q0 -325 -174.5 -518t-466.5 -193h-526zM401 252h256q67 0 122 17t92.5 44t66.5 66.5t45.5 79.5t27 87.5t14 86.5t3.5 80q0 68 -9 128t-34 122t-65 106t-107.5 72t-155.5 28h-256v-917z" />
<glyph unicode="E" horiz-adv-x="1245" d="M131 0v1421h1038v-252h-768v-303h656v-252h-656v-362h783v-252h-1053z" />
<glyph unicode="F" horiz-adv-x="1200" d="M131 0v1421h1016v-252h-746v-338h641v-251h-641v-580h-270z" />
<glyph unicode="G" horiz-adv-x="1531" d="M68 715q0 205 91 375t249.5 268t349.5 98q236 0 407.5 -126t237.5 -347h-291q-43 98 -139 162.5t-215 64.5q-116 0 -213 -67t-152 -181t-55 -247q0 -132 57 -245.5t156.5 -181t218.5 -67.5q148 0 260.5 90t151.5 228h-385v252h633v-791h-250v154q-71 -85 -181 -132 t-241 -47q-143 0 -271 57.5t-219.5 156t-145.5 236t-54 290.5z" />
<glyph unicode="H" horiz-adv-x="1413" d="M131 0v1421h272v-569h607v569h270v-1421h-270v600h-607v-600h-272z" />
<glyph unicode="I" horiz-adv-x="542" d="M137 0v1421h271v-1421h-271z" />
<glyph unicode="J" horiz-adv-x="1081" d="M35 438v99h270v-107q0 -79 49.5 -135.5t143.5 -56.5q95 0 144.5 56.5t49.5 135.5v991h271v-983q0 -201 -128 -333t-337 -132t-336 131.5t-127 333.5z" />
<glyph unicode="K" horiz-adv-x="1327" d="M131 0v1421h272v-573l535 573h373l-578 -594l602 -827h-352l-440 631l-140 -146v-485h-272z" />
<glyph unicode="L" horiz-adv-x="1144" d="M131 0v1421h272v-1169h707v-252h-979z" />
<glyph unicode="M" horiz-adv-x="1660" d="M131 0v1421h401l297 -1065l297 1065h404v-1421h-266v1042l-289 -1042h-289l-289 1042v-1042h-266z" />
<glyph unicode="N" horiz-adv-x="1437" d="M131 0v1421h326l577 -1011v1011h273v-1421h-326l-580 1012v-1012h-270z" />
<glyph unicode="O" horiz-adv-x="1525" d="M68 717q0 204 89 373t249 267.5t358 98.5q197 0 356.5 -98.5t248.5 -267.5t89 -373q0 -205 -89 -374.5t-248.5 -268.5t-356.5 -99q-198 0 -358 99t-249 268.5t-89 374.5zM340 717q0 -200 124 -343t300 -143q174 0 298 143t124 343q0 198 -124 340.5t-298 142.5 q-116 0 -213.5 -65.5t-154 -176.5t-56.5 -241z" />
<glyph unicode="P" horiz-adv-x="1249" d="M131 0v1421h598q221 0 345 -123.5t124 -334.5q0 -200 -127 -327.5t-336 -127.5h-334v-508h-270zM401 756h326q96 0 148.5 51t52.5 156q0 206 -201 206h-326v-413z" />
<glyph unicode="Q" horiz-adv-x="1523" d="M68 717q0 204 89 373t249 267.5t358 98.5q197 0 356 -98.5t247.5 -267.5t88.5 -373q0 -155 -51.5 -291.5t-144.5 -237.5l200 -213h-307l-72 76q-146 -76 -317 -76q-198 0 -358 99t-249 268.5t-89 374.5zM338 717q0 -131 57 -243t155 -177.5t214 -65.5q60 0 127 23 l-211 223h307l84 -90q115 137 115 330q0 130 -57 241.5t-154 176.5t-211 65q-176 0 -301 -142t-125 -341z" />
<glyph unicode="R" d="M131 0v1421h649q224 0 356 -113t132 -311q0 -231 -199 -323q156 -86 156 -303v-199q0 -37 10 -88.5t22 -83.5h-274q-29 71 -29 156v217q0 91 -44.5 133.5t-139.5 42.5h-369v-549h-270zM401 793h385q16 0 36 2.5t53 14t58.5 30.5t44.5 56t19 87q0 22 -1.5 38t-13 47 t-32 50t-65 35t-105.5 16h-379v-376z" />
<glyph unicode="S" horiz-adv-x="1325" d="M76 471h270q0 -80 49 -138t118 -84t144 -26q83 0 152.5 19t117.5 63.5t48 108.5q0 70 -72.5 114.5t-263.5 81.5q-64 12 -112.5 24t-106.5 31t-99.5 41t-83.5 55t-68 72.5t-42 93t-16 117.5q0 184 149.5 299t396.5 115q135 0 242.5 -41t171.5 -108.5t97.5 -149 t33.5 -168.5h-270q0 94 -74.5 154.5t-200.5 60.5q-115 0 -195.5 -43t-80.5 -121q0 -70 69 -106t244 -72q112 -22 188.5 -44t150 -57t117 -79.5t69.5 -110t26 -151.5q0 -205 -159.5 -326t-428.5 -121q-86 0 -168 18.5t-157 58t-132 96.5t-90.5 140.5t-33.5 182.5z" />
<glyph unicode="T" horiz-adv-x="1097" d="M33 1169v252h1032v-252h-381v-1169h-270v1169h-381z" />
<glyph unicode="U" horiz-adv-x="1331" d="M119 563v858h270v-866q0 -317 277 -317q276 0 276 317v866h272v-858q0 -276 -141.5 -432t-406.5 -156t-406 156t-141 432z" />
<glyph unicode="V" horiz-adv-x="1236" d="M6 1421h287l325 -1095l324 1095h287l-465 -1421h-291z" />
<glyph unicode="W" horiz-adv-x="1822" d="M6 1421h287l244 -1034l213 1034h327l211 -1034l246 1034h285l-387 -1421h-299l-220 1071l-221 -1071h-297z" />
<glyph unicode="X" horiz-adv-x="1247" d="M4 0l459 727l-438 694h319l281 -465l280 465h322l-439 -694l457 -727h-319l-301 498l-299 -498h-322z" />
<glyph unicode="Y" horiz-adv-x="1218" d="M-4 1421h305l307 -608l310 608h305l-478 -876v-545h-272v545z" />
<glyph unicode="Z" horiz-adv-x="1214" d="M51 0v242l762 927h-737v252h1067v-239l-762 -930h780v-252h-1110z" />
<glyph unicode="[" horiz-adv-x="649" d="M131 -248v1925h492v-221h-250v-1483h250v-221h-492z" />
<glyph unicode="\" horiz-adv-x="692" d="M-27 1524h283l430 -1524h-280z" />
<glyph unicode="]" horiz-adv-x="690" d="M47 -27h260v1483h-260v221h512v-1925h-512v221z" />
<glyph unicode="^" horiz-adv-x="1134" d="M68 528l366 893h266l367 -893h-270l-230 625l-229 -625h-270z" />
<glyph unicode="_" horiz-adv-x="1650" d="M-4 -143h1659v-252h-1659v252z" />
<glyph unicode="`" horiz-adv-x="854" d="M152 1481h301l190 -289h-199z" />
<glyph unicode="a" horiz-adv-x="1191" d="M63 322q0 69 23.5 122.5t61.5 87t96 57t117 34.5t135 18q75 7 123 14.5t92 20.5t65 35t21 53q0 43 -52.5 71.5t-140.5 28.5q-79 0 -146 -35t-85 -98h-271q21 153 156.5 251.5t339.5 98.5q88 0 160 -16t119 -40.5t82 -59t53.5 -67t29.5 -69.5t14 -61t3 -47v-549 q0 -81 31 -172h-248q-18 41 -27 98q-112 -118 -323 -118q-85 0 -161.5 21.5t-136.5 63t-95.5 108t-35.5 149.5zM336 319q0 -45 48.5 -72.5t129.5 -27.5q130 0 211.5 47.5t81.5 143.5v98q-75 -48 -256 -68q-108 -11 -161.5 -38.5t-53.5 -82.5z" />
<glyph unicode="b" horiz-adv-x="1267" d="M123 0v1524h272v-570q126 123 310 123q136 0 251 -72t182.5 -199t67.5 -280t-67.5 -279.5t-182.5 -198t-251 -71.5q-192 0 -322 136v-113h-260zM395 524q0 -123 79.5 -210t191.5 -87q113 0 191.5 86t78.5 211q0 128 -78.5 215.5t-191.5 87.5t-192 -88.5t-79 -214.5z" />
<glyph unicode="c" horiz-adv-x="1169" d="M61 526q0 151 69.5 278t195 202t280.5 75q191 0 326.5 -101.5t181.5 -279.5h-289q-29 57 -88.5 95.5t-130.5 38.5q-112 0 -191 -91t-79 -219q0 -125 79 -214t191 -89q73 0 133.5 38.5t87.5 96.5h289q-46 -179 -181.5 -280t-328.5 -101q-155 0 -280.5 74t-195 200 t-69.5 277z" />
<glyph unicode="d" horiz-adv-x="1273" d="M61 526q0 115 40 218t108 175.5t160.5 115t193.5 42.5q182 0 311 -123v570h271v-1524h-258v113q-133 -136 -324 -136q-101 0 -193.5 42.5t-160.5 115t-108 175t-40 216.5zM334 524q0 -125 78.5 -211t191.5 -86q112 0 191 87t79 210q0 126 -79 214.5t-191 88.5 q-113 0 -191.5 -87.5t-78.5 -215.5z" />
<glyph unicode="e" horiz-adv-x="1198" d="M61 526q0 150 73 278t197.5 202.5t270.5 74.5q117 0 219.5 -45t176.5 -127q75 -83 112 -209q27 -92 27 -196q0 -40 -4 -82h-797q26 -97 97.5 -153t166.5 -56q71 0 131 31t92 92h289q-47 -164 -182 -262.5t-328 -98.5q-146 0 -270.5 73.5t-197.5 200.5t-73 277zM340 643 h524q-25 92 -96 146.5t-168 54.5q-92 0 -161.5 -54t-98.5 -147z" />
<glyph unicode="f" horiz-adv-x="643" d="M16 811v240h127q3 214 128 341q104 105 274 105q33 0 69 -4v-254q-15 1 -29 1q-78 0 -121 -38q-50 -45 -50 -151h190v-240h-190v-811h-271v811h-127z" />
<glyph unicode="g" horiz-adv-x="1253" d="M61 526q0 115 40 218t108 175.5t160.5 115t193.5 42.5q192 0 324 -135v113h258v-1002q0 -263 -147 -416t-400 -153q-126 0 -235 45t-183 130t-94 194h297q24 -58 87.5 -87.5t127.5 -29.5q138 0 207 83.5t69 229.5v51q-129 -123 -311 -123q-101 0 -193.5 42.5t-160.5 115 t-108 175t-40 216.5zM334 524q0 -125 78.5 -211t191.5 -86q112 0 191 87t79 210q0 126 -79 214.5t-191 88.5q-113 0 -191.5 -87.5t-78.5 -215.5z" />
<glyph unicode="h" horiz-adv-x="1181" d="M123 0v1524h272v-525q109 82 242 82q193 0 311.5 -128t118.5 -337v-616h-270v616q0 22 -3.5 44.5t-15.5 52t-32 51.5t-58 37.5t-88 15.5q-91 0 -148 -56t-57 -145v-616h-272z" />
<glyph unicode="i" horiz-adv-x="528" d="M129 0v1055h270v-1055h-270zM129 1169v252h270v-252h-270z" />
<glyph unicode="j" horiz-adv-x="489" d="M-51 -225q18 -2 35 -2q58 0 88 23q39 28 39 106v1153h272v-1184q0 -201 -114 -283q-84 -61 -219 -61q-47 0 -101 8v240zM111 1169v252h272v-252h-272z" />
<glyph unicode="k" horiz-adv-x="1142" d="M123 0v1524h270v-852l346 383h373l-393 -412l416 -643h-344l-263 444l-135 -141v-303h-270z" />
<glyph unicode="l" horiz-adv-x="526" d="M129 0v1524h270v-1524h-270z" />
<glyph unicode="m" horiz-adv-x="1853" d="M123 0v1055h260v-103q106 129 272 129q97 0 178.5 -39t137.5 -110q123 149 321 149q209 0 328 -127.5t119 -337.5v-616h-271v616q0 23 -3 45.5t-15.5 54t-32.5 54t-57.5 39t-87.5 16.5q-90 0 -147.5 -59.5t-57.5 -149.5v-616h-272v616q0 23 -3 45.5t-15 54t-32 54t-58 39 t-89 16.5q-89 0 -146 -59.5t-57 -149.5v-616h-272z" />
<glyph unicode="n" horiz-adv-x="1181" d="M123 0v1055h258v-103q110 129 272 129q186 0 299 -128t113 -337v-616h-270v616q0 23 -3 45.5t-15 54t-32 54t-58 39t-89 16.5q-90 0 -147.5 -59.5t-57.5 -149.5v-616h-270z" />
<glyph unicode="o" horiz-adv-x="1185" d="M61 526q0 155 71.5 282.5t193 200t266.5 72.5t267 -72.5t193.5 -200.5t71.5 -282t-71.5 -281t-193.5 -198.5t-267 -71.5t-266.5 71.5t-193 198.5t-71.5 281zM332 524q0 -131 75.5 -216t184.5 -85t184.5 85t75.5 216q0 135 -75.5 222.5t-184.5 87.5t-184.5 -87.5 t-75.5 -222.5z" />
<glyph unicode="p" horiz-adv-x="1267" d="M123 -469v1524h260v-111q132 135 322 135q136 0 251 -71.5t182.5 -198t67.5 -279.5q0 -233 -146.5 -393t-354.5 -160q-182 0 -310 125v-571h-272zM395 530q0 -125 79.5 -213t191.5 -88q113 0 191.5 86.5t78.5 214.5q0 127 -78.5 212t-191.5 85q-112 0 -191.5 -87 t-79.5 -210z" />
<glyph unicode="q" horiz-adv-x="1269" d="M61 530q0 114 40 216.5t108 175t160.5 115t193.5 42.5q189 0 324 -135v111h258v-1524h-271v571q-131 -125 -311 -125q-101 0 -193.5 43t-160.5 116t-108 176t-40 218zM334 530q0 -128 78.5 -214.5t191.5 -86.5q112 0 191 88t79 213q0 123 -79 210t-191 87 q-113 0 -191.5 -85t-78.5 -212z" />
<glyph unicode="r" horiz-adv-x="745" d="M123 0v1055h258v-105q63 78 153 109q60 21 124 21q31 0 63 -5v-262q-34 4 -65 4q-131 0 -195 -69q-68 -70 -68 -230v-518h-270z" />
<glyph unicode="s" horiz-adv-x="1077" d="M51 344h275q26 -62 91 -92.5t134 -30.5q84 0 137 24.5t53 69.5q0 46 -43 69t-178 44q-49 8 -84.5 14.5t-84.5 19.5t-84 28t-72.5 39t-61 53.5t-38.5 70.5t-15 90q0 64 28 123t82 108t142 78t198 29q181 0 306 -90t151 -239h-280q-13 39 -59 63.5t-118 24.5 q-87 0 -131.5 -25.5t-44.5 -58.5q0 -38 49.5 -57.5t159.5 -36.5q73 -12 125.5 -23.5t107.5 -30t91.5 -42t67 -56.5t45 -77.5t14.5 -100.5q0 -157 -130 -257t-333 -100q-202 0 -338.5 100t-161.5 269z" />
<glyph unicode="t" horiz-adv-x="647" d="M16 815v240h127v268h271v-268h190v-240h-190v-373q0 -108 50 -154q44 -41 129 -41q11 0 23 1v-246q-37 -4 -72 -4q-176 0 -278 102q-124 122 -123 344v371h-127z" />
<glyph unicode="u" horiz-adv-x="1179" d="M115 438v617h270v-617q0 -22 3.5 -44.5t15.5 -53.5t32 -53.5t58 -39t88 -16.5q90 0 147 59t57 148v617h271v-1055h-258v96q-105 -121 -269 -121q-187 0 -301 127.5t-114 335.5z" />
<glyph unicode="v" horiz-adv-x="1091" d="M2 1055h283l262 -787l264 787h279l-398 -1055h-291z" />
<glyph unicode="w" horiz-adv-x="1605" d="M4 1055h287l184 -738l193 738h270l192 -738l185 738h287l-330 -1055h-279l-190 698l-191 -698h-280z" />
<glyph unicode="x" horiz-adv-x="1050" d="M0 0l369 545l-346 510h307l196 -322l195 322h307l-346 -510l369 -545h-306l-219 358l-221 -358h-305z" />
<glyph unicode="y" horiz-adv-x="1089" d="M2 1055h287l258 -762l252 762h288l-466 -1248q-30 -80 -68.5 -137t-83 -89.5t-97.5 -50.5t-112 -20q-23 -1 -48 -1q-37 0 -77 2v245q16 -1 32 -1q80 0 125 27q54 31 87 120l31 80z" />
<glyph unicode="z" horiz-adv-x="1009" d="M43 0v233l557 578h-534v244h880v-242l-547 -569h566v-244h-922z" />
<glyph unicode="{" horiz-adv-x="684" d="M39 608v195q199 0 199 225v256q0 192 105.5 280.5t295.5 69.5v-198q-80 6 -119 -39.5t-39 -124.5v-268q0 -226 -155 -297q155 -77 155 -299v-269q0 -79 39 -124.5t119 -39.5v-200q-190 -18 -295.5 71.5t-105.5 282.5v256q0 223 -199 223z" />
<glyph unicode="|" horiz-adv-x="548" d="M139 0v1524h271v-1524h-271z" />
<glyph unicode="}" horiz-adv-x="684" d="M47 -25q78 -6 117 39.5t39 124.5v269q0 222 155 299q-155 71 -155 297v268q0 79 -39 124.5t-117 39.5v198q188 19 293.5 -69.5t105.5 -280.5v-256q0 -225 199 -225v-195q-199 0 -199 -223v-256q0 -193 -105.5 -282.5t-293.5 -71.5v200z" />
<glyph unicode="~" horiz-adv-x="882" d="M82 1243q15 103 71 172.5t152 69.5q65 0 157.5 -38t125.5 -38q34 0 55 20.5t33 65.5h125q-13 -102 -68 -173t-145 -71q-66 0 -160 38t-129 38q-72 0 -92 -84h-125z" />
<glyph unicode="&#xa1;" horiz-adv-x="587" d="M160 0v999h270v-999h-270zM160 1155v268h270v-268h-270z" />
<glyph unicode="&#xa2;" horiz-adv-x="1095" d="M61 535q0 234 141.5 389t358.5 155q30 0 88 -8l68 221h139l-80 -260q95 -47 162 -133.5t96 -200.5h-248q-25 63 -79 107l-179 -584q24 -4 37 -4q77 0 136.5 44t89.5 120h245q-40 -177 -167 -284t-308 -107q-45 0 -100 10l-68 -225h-139l82 268q-127 65 -201 195.5 t-74 296.5zM307 535q0 -80 27 -147t74 -109l174 571h-17q-112 0 -185 -89t-73 -226z" />
<glyph unicode="&#xa3;" horiz-adv-x="1142" d="M88 573v179h133q-39 60 -60.5 119t-21.5 137q0 189 132 307.5t341 118.5q213 0 347.5 -126.5t134.5 -326.5h-254q0 96 -61 156.5t-167 60.5q-101 0 -160 -53t-59 -137q0 -36 10.5 -73t21.5 -59t35 -64t34 -60h299v-179h-242q4 -40 2 -65q0 -156 -131 -264l2 -2 q127 59 305 -4q60 -24 110.5 -21.5t86 20.5t73.5 56l125 -197q-195 -188 -462 -71q-112 51 -208.5 42t-201.5 -87l-148 208q98 53 160 135.5t62 170.5q0 45 -11 79h-227z" />
<glyph unicode="&#xa4;" horiz-adv-x="1343" d="M51 434v154h121q-4 46 -4 71q0 8 1 25.5t1 26.5h-119v151h148q62 201 228.5 327t381.5 126q296 0 475 -203l-115 -184q-55 80 -146 127t-206 47q-123 0 -220 -65t-148 -175h681l-94 -151h-628q-2 -16 -2 -52q0 -25 4 -71h551l-95 -154h-411q48 -102 135.5 -161.5 t195.5 -59.5q97 0 165 33.5t118 103.5h254q-70 -166 -207.5 -258t-329.5 -92q-202 0 -359.5 120t-221.5 314h-154z" />
<glyph unicode="&#xa5;" horiz-adv-x="1230" d="M2 1421h305l307 -608l310 608h305l-256 -469h164v-151h-246l-115 -209h330v-154h-354v-438h-273v438h-354v154h330l-115 209h-246v151h164z" />
<glyph unicode="&#xa7;" horiz-adv-x="1079" d="M68 715q0 72 35 136.5t108 109.5q-61 70 -61 186q3 137 113.5 226t287.5 89t281 -95t102 -249h-238q1 61 -42 94t-105 33q-66 0 -113.5 -25t-48.5 -73q0 -43 37.5 -64t132.5 -39q178 -37 236 -56q160 -54 202 -164q17 -45 17 -101q0 -154 -129 -236q61 -70 61 -184 q0 -146 -110 -239t-304 -93q-188 0 -302.5 103t-114.5 262h235q0 -62 52.5 -106t134.5 -44q84 0 131 28.5t47 74.5q0 32 -17 51t-66.5 35.5t-148.5 34.5q-98 17 -167.5 38.5t-128 56t-88 87t-29.5 123.5zM303 748q0 -51 59.5 -80t184.5 -47q19 -3 56 -10.5t56 -10.5 q123 25 123 96q0 19 -7.5 34.5t-25 27.5t-37 21t-53.5 17.5t-64.5 14.5t-78.5 14q-47 8 -92 21q-59 -15 -90 -41t-31 -57z" />
<glyph unicode="&#xa8;" horiz-adv-x="854" d="M121 1233v221h225v-221h-225zM506 1233v221h225v-221h-225z" />
<glyph unicode="&#xa9;" horiz-adv-x="1603" d="M61 717q0 150 58.5 287t158 236t237 157.5t288.5 58.5q150 0 287 -58.5t236 -157.5t157.5 -236t58.5 -287q0 -151 -58.5 -288.5t-157.5 -237t-236 -158t-287 -58.5q-202 0 -372.5 99.5t-270 270t-99.5 372.5zM264 717q0 -149 72.5 -275.5t196.5 -200t270 -73.5 t269.5 73.5t195 200t71.5 275.5t-71.5 275.5t-195 200t-269.5 73.5t-270 -73.5t-196.5 -200t-72.5 -275.5zM424 717q0 164 109.5 278.5t269.5 114.5q133 0 230 -78t130 -205h-209q-48 95 -151 95q-74 0 -126 -60t-52 -145t52 -145t126 -60q100 0 149 92h209 q-33 -125 -130.5 -203.5t-227.5 -78.5q-160 0 -269.5 115t-109.5 280z" />
<glyph unicode="&#xaa;" horiz-adv-x="782" d="M63 1001q0 52 20.5 88.5t59 57.5t81.5 31.5t100 15.5q90 7 135 22t45 50q0 27 -31 44t-84 17q-47 0 -88 -21.5t-51 -58.5h-162q12 92 93 150.5t204 58.5q73 0 127.5 -18t82 -42.5t44 -57.5t20 -54.5t3.5 -42.5v-330q0 -46 18 -102h-150q-12 31 -14 59q-68 -71 -197 -71 q-107 0 -181.5 53t-74.5 151zM227 999q0 -27 29.5 -43t79.5 -16q77 0 125.5 28.5t48.5 86.5v57q-45 -26 -154 -39q-64 -6 -96.5 -23t-32.5 -51z" />
<glyph unicode="&#xab;" horiz-adv-x="866" d="M47 512v203l324 278v-215l-205 -164l205 -168v-215zM481 512v203l324 278v-215l-205 -164l205 -168v-215z" />
<glyph unicode="&#xac;" horiz-adv-x="458" d="M94 578v268h271v-268h-271z" />
<glyph unicode="&#xad;" horiz-adv-x="677" d="M61 442v252h555v-252h-555z" />
<glyph unicode="&#xae;" horiz-adv-x="1603" d="M61 717q0 150 58.5 287t158 236t237 157.5t288.5 58.5q150 0 287 -58.5t236 -157.5t157.5 -236t58.5 -287q0 -151 -58.5 -288.5t-157.5 -237t-236 -158t-287 -58.5q-202 0 -372.5 99.5t-270 270t-99.5 372.5zM264 717q0 -149 72.5 -275.5t196.5 -200t270 -73.5 t269.5 73.5t195 200t71.5 275.5q0 148 -71.5 274.5t-195 200.5t-269.5 74q-109 0 -209 -44t-172 -117.5t-115 -175t-43 -212.5zM524 358v756h361q130 0 201 -73t71 -197q0 -76 -36 -133.5t-99 -89.5l141 -263h-225l-111 222h-102v-222h-201zM725 758h147q39 0 59.5 23.5 t20.5 62.5q0 86 -80 86h-147v-172z" />
<glyph unicode="&#xaf;" horiz-adv-x="825" d="M82 1219v178h661v-178h-661z" />
<glyph unicode="&#xb0;" horiz-adv-x="755" d="M63 1104q0 129 92 221t222 92t222.5 -92t92.5 -221q0 -131 -92.5 -223.5t-222.5 -92.5t-222 92.5t-92 223.5zM219 1104q0 -66 46.5 -113t111.5 -47t111.5 47t46.5 113q0 64 -46.5 111t-111.5 47t-111.5 -47t-46.5 -111z" />
<glyph unicode="&#xb2;" horiz-adv-x="749" d="M68 541v73q0 58 15.5 108t38.5 86t60.5 69.5t71.5 56t80 47.5q114 61 147 98t33 82q0 47 -31.5 78t-95.5 31t-101.5 -44t-37.5 -114h-168q0 129 81.5 221t225.5 92q142 0 218.5 -79.5t76.5 -186.5q0 -41 -8 -75t-27.5 -62.5t-39 -50t-54.5 -45.5t-61.5 -39.5t-73.5 -40.5 q-156 -82 -164 -150h426v-155h-612z" />
<glyph unicode="&#xb3;" horiz-adv-x="753" d="M49 821h170q0 -66 39.5 -103.5t108.5 -37.5q71 0 112 35t41 90q0 113 -143 113h-55v145h32q142 0 142 100q0 50 -31.5 78.5t-89.5 28.5q-64 0 -97.5 -37.5t-33.5 -91.5h-168q0 120 80.5 202t218.5 82t211 -72t73 -169q0 -124 -112 -180q72 -22 106.5 -77t34.5 -124 q0 -111 -85.5 -195t-233.5 -84q-152 0 -234.5 83.5t-85.5 213.5z" />
<glyph unicode="&#xb4;" horiz-adv-x="854" d="M190 1192l191 289h303l-295 -289h-199z" />
<glyph unicode="&#xb5;" horiz-adv-x="458" d="M94 578v268h271v-268h-271z" />
<glyph unicode="&#xb6;" horiz-adv-x="1251" d="M51 963q0 212 123.5 335t345.5 123h600v-1421h-213v1217h-153v-1217h-213v508h-27q-209 0 -336 127.5t-127 327.5z" />
<glyph unicode="&#xb7;" horiz-adv-x="458" d="M94 578v268h271v-268h-271z" />
<glyph unicode="&#xb8;" horiz-adv-x="630" d="M82 -371l35 74q71 -39 134.5 -46.5t98.5 12.5t35 57q0 35 -27 54.5t-62.5 18t-70.5 -15.5l-78 47l84 170h134l-84 -123q38 17 84 17.5t87.5 -15t69 -54t27.5 -93.5q0 -86 -68.5 -135.5t-165.5 -49.5q-130 0 -233 82z" />
<glyph unicode="&#xb9;" horiz-adv-x="526" d="M70 1155v109q65 2 114.5 41.5t55.5 115.5h135v-880h-168v614h-137z" />
<glyph unicode="&#xba;" horiz-adv-x="759" d="M61 1124q0 140 93.5 236t226.5 96t225 -96t92 -236t-92 -234.5t-225 -94.5t-226.5 94.5t-93.5 234.5zM225 1124q0 -80 45 -131t111 -51t111 51t45 131q0 81 -45 133t-111 52t-111 -52t-45 -133z" />
<glyph unicode="&#xbb;" horiz-adv-x="864" d="M59 231v215l205 168l-205 164v215l324 -278v-203zM494 231v215l204 168l-204 164v215l323 -278v-203z" />
<glyph unicode="&#xbc;" horiz-adv-x="1523" d="M70 1155v109q66 2 115 41.5t55 115.5h135v-880h-168v614h-137zM211 -25l833 1446h173l-834 -1446h-172zM827 180v148l347 553h194v-553h94v-148h-94v-180h-158v180h-383zM993 328h217v348z" />
<glyph unicode="&#xbd;" horiz-adv-x="1630" d="M70 1155v109q65 2 114 41.5t56 115.5h133v-880h-166v614h-137zM209 -25l835 1446h170l-833 -1446h-172zM948 0v76q0 71 21.5 129t62.5 101.5t82.5 73t99.5 60.5q113 61 147 99t34 82q0 48 -31 78t-94 30q-65 0 -103.5 -43.5t-38.5 -112.5h-167q0 128 82 220t225 92 q142 0 218.5 -80t76.5 -187q0 -41 -8 -74.5t-28 -62.5t-38.5 -49.5t-55 -45t-62 -39t-73.5 -40.5q-75 -41 -117 -77.5t-46 -73.5h426v-156h-613z" />
<glyph unicode="&#xbe;" horiz-adv-x="1736" d="M49 821h168q0 -66 40.5 -103.5t109.5 -37.5t110 35t41 90q0 113 -143 113h-56v145h33q142 0 142 100q0 50 -31.5 78.5t-89.5 28.5q-64 0 -97.5 -37.5t-33.5 -91.5h-168q0 120 81 202t218 82q138 0 211 -72t73 -169q0 -124 -112 -180q72 -22 106.5 -77t34.5 -124 q0 -112 -85 -195.5t-234 -83.5q-152 0 -234 83.5t-84 213.5zM424 -25l833 1446h173l-834 -1446h-172zM1040 180v148l346 553h195v-553h94v-148h-94v-180h-156v180h-385zM1206 328h219v348z" />
<glyph unicode="&#xbf;" horiz-adv-x="1130" d="M94 391q0 117 62 200t178 159q70 48 99.5 95.5t29.5 112.5v48h250v-48q0 -77 -18.5 -138t-55.5 -107.5t-69 -74t-83 -63.5q-69 -51 -97 -91t-28 -93q0 -75 56 -121.5t151 -46.5q107 0 166.5 60.5t59.5 154.5h266q0 -208 -133 -336.5t-359 -128.5q-221 0 -348 116 t-127 302zM453 1161v269h272v-269h-272z" />
<glyph unicode="&#xc0;" d="M12 0l496 1421h342l496 -1421h-287l-96 285h-568l-96 -285h-287zM324 1829h303l190 -289h-199zM479 537h398l-199 583z" />
<glyph unicode="&#xc1;" d="M12 0l496 1421h342l496 -1421h-287l-96 285h-568l-96 -285h-287zM479 537h398l-199 583zM541 1540l190 289h303l-295 -289h-198z" />
<glyph unicode="&#xc2;" d="M12 0l496 1421h342l496 -1421h-287l-96 285h-568l-96 -285h-287zM330 1540l227 291h244l225 -291h-221l-127 170l-125 -170h-223zM479 537h398l-199 583z" />
<glyph unicode="&#xc3;" d="M12 0l496 1421h342l496 -1421h-287l-96 285h-568l-96 -285h-287zM319 1554q15 103 71.5 172.5t152.5 69.5q65 0 157 -38t125 -38q34 0 55 20.5t33 65.5h125q-13 -102 -68 -172.5t-145 -70.5q-66 0 -159.5 37.5t-128.5 37.5q-73 0 -93 -84h-125zM479 537h398l-199 583z " />
<glyph unicode="&#xc4;" d="M12 0l496 1421h342l496 -1421h-287l-96 285h-568l-96 -285h-287zM360 1563v227h252v-227h-252zM479 537h398l-199 583zM745 1563v227h252v-227h-252z" />
<glyph unicode="&#xc5;" d="M12 0l496 1421h342l496 -1421h-287l-96 285h-568l-96 -285h-287zM461 1741q0 89 64 153t153 64q90 0 153.5 -63.5t63.5 -153.5q0 -91 -63 -154t-154 -63q-90 0 -153.5 63.5t-63.5 153.5zM479 537h398l-199 583zM582 1741q0 -41 28 -71t68 -30q41 0 69.5 29.5t28.5 71.5 q0 41 -28.5 70.5t-69.5 29.5q-40 0 -68 -29.5t-28 -70.5z" />
<glyph unicode="&#xc6;" horiz-adv-x="1976" d="M12 0l502 1421h1387v-252h-768v-303h651v-252h-651v-362h782v-252h-1055v285h-465l-98 -285h-285zM477 537h383v632h-164z" />
<glyph unicode="&#xc7;" horiz-adv-x="1449" d="M68 717q0 205 90.5 375t248.5 268t349 98q239 0 409.5 -126.5t237.5 -346.5h-293q-53 101 -144 161t-210 60q-114 0 -210.5 -66.5t-152 -179t-55.5 -243.5q0 -132 55.5 -245.5t152 -180t210.5 -66.5q117 0 208.5 62t145.5 164h291q-67 -216 -233.5 -344t-393.5 -132 l-67 -96q39 17 85.5 17t87.5 -15.5t69 -54.5t28 -94q0 -85 -69 -135t-167 -50q-128 0 -231 82l35 74q70 -39 133.5 -46t99 13t35.5 56q0 35 -27 54.5t-62.5 18t-70.5 -15.5l-80 47l76 154q-252 40 -416.5 246t-164.5 487z" />
<glyph unicode="&#xc8;" horiz-adv-x="1245" d="M131 0v1421h1038v-252h-768v-303h656v-252h-656v-362h783v-252h-1053zM268 1829h303l191 -289h-199z" />
<glyph unicode="&#xc9;" horiz-adv-x="1245" d="M131 0v1421h1038v-252h-768v-303h656v-252h-656v-362h783v-252h-1053zM541 1540l190 289h303l-295 -289h-198z" />
<glyph unicode="&#xca;" horiz-adv-x="1245" d="M131 0v1421h1038v-252h-768v-303h656v-252h-656v-362h783v-252h-1053zM330 1540l227 291h244l225 -291h-221l-127 170l-125 -170h-223z" />
<glyph unicode="&#xcb;" horiz-adv-x="1245" d="M131 0v1421h1038v-252h-768v-303h656v-252h-656v-362h783v-252h-1053zM360 1563v227h252v-227h-252zM745 1563v227h252v-227h-252z" />
<glyph unicode="&#xcc;" horiz-adv-x="542" d="M-94 1829h303l190 -289h-198zM137 0v1421h271v-1421h-271z" />
<glyph unicode="&#xcd;" horiz-adv-x="542" d="M137 0v1421h271v-1421h-271zM154 1540l190 289h303l-295 -289h-198z" />
<glyph unicode="&#xce;" horiz-adv-x="542" d="M-76 1540l228 291h243l226 -291h-222l-127 170l-125 -170h-223zM137 0v1421h271v-1421h-271z" />
<glyph unicode="&#xcf;" horiz-adv-x="542" d="M-39 1563v227h252v-227h-252zM137 0v1421h271v-1421h-271zM346 1563v227h252v-227h-252z" />
<glyph unicode="&#xd0;" horiz-adv-x="1415" d="M31 657v252h149v512h527q296 0 468.5 -191t172.5 -519q0 -325 -174.5 -518t-466.5 -193h-527v657h-149zM453 252h254q77 0 138.5 21.5t100.5 60t66.5 83.5t40.5 100.5t18.5 101t5.5 94.5q0 68 -9 128t-34 122t-64.5 106t-107 72t-155.5 28h-254v-260h333v-252h-333v-405z " />
<glyph unicode="&#xd1;" horiz-adv-x="1437" d="M131 0v1421h326l577 -1011v1011h273v-1421h-326l-580 1012v-1012h-270zM387 1593q11 108 70 177t145 69q48 0 95.5 -23t89.5 -46t77 -23q72 0 101 86h112q-12 -107 -72 -176.5t-145 -69.5q-48 0 -95.5 23t-89.5 46t-77 23q-71 0 -100 -86h-111z" />
<glyph unicode="&#xd2;" horiz-adv-x="1525" d="M68 717q0 204 89 373t249 267.5t358 98.5q197 0 356.5 -98.5t248.5 -267.5t89 -373q0 -205 -89 -374.5t-248.5 -268.5t-356.5 -99q-198 0 -358 99t-249 268.5t-89 374.5zM340 717q0 -200 124 -343t300 -143q174 0 298 143t124 343q0 198 -124 340.5t-298 142.5 q-116 0 -213.5 -65.5t-154 -176.5t-56.5 -241zM360 1829h304l190 -289h-199z" />
<glyph unicode="&#xd3;" horiz-adv-x="1525" d="M68 717q0 204 89 373t249 267.5t358 98.5q197 0 356.5 -98.5t248.5 -267.5t89 -373q0 -205 -89 -374.5t-248.5 -268.5t-356.5 -99q-198 0 -358 99t-249 268.5t-89 374.5zM340 717q0 -200 124 -343t300 -143q174 0 298 143t124 343q0 198 -124 340.5t-298 142.5 q-116 0 -213.5 -65.5t-154 -176.5t-56.5 -241zM653 1540l191 289h303l-295 -289h-199z" />
<glyph unicode="&#xd4;" horiz-adv-x="1525" d="M68 717q0 204 89 373t249 267.5t358 98.5q197 0 356.5 -98.5t248.5 -267.5t89 -373q0 -205 -89 -374.5t-248.5 -268.5t-356.5 -99q-198 0 -358 99t-249 268.5t-89 374.5zM340 717q0 -200 124 -343t300 -143q174 0 298 143t124 343q0 198 -124 340.5t-298 142.5 q-116 0 -213.5 -65.5t-154 -176.5t-56.5 -241zM416 1540l227 291h244l225 -291h-221l-127 170l-125 -170h-223z" />
<glyph unicode="&#xd5;" horiz-adv-x="1525" d="M68 717q0 204 89 373t249 267.5t358 98.5q197 0 356.5 -98.5t248.5 -267.5t89 -373q0 -205 -89 -374.5t-248.5 -268.5t-356.5 -99q-198 0 -358 99t-249 268.5t-89 374.5zM340 717q0 -200 124 -343t300 -143q174 0 298 143t124 343q0 198 -124 340.5t-298 142.5 q-116 0 -213.5 -65.5t-154 -176.5t-56.5 -241zM424 1554q15 103 71 172.5t152 69.5q65 0 157.5 -38t125.5 -38q34 0 55 20.5t33 65.5h125q-13 -102 -68 -172.5t-145 -70.5q-66 0 -160 37.5t-129 37.5q-72 0 -92 -84h-125z" />
<glyph unicode="&#xd6;" horiz-adv-x="1525" d="M68 717q0 204 89 373t249 267.5t358 98.5q197 0 356.5 -98.5t248.5 -267.5t89 -373q0 -205 -89 -374.5t-248.5 -268.5t-356.5 -99q-198 0 -358 99t-249 268.5t-89 374.5zM340 717q0 -200 124 -343t300 -143q174 0 298 143t124 343q0 198 -124 340.5t-298 142.5 q-116 0 -213.5 -65.5t-154 -176.5t-56.5 -241zM453 1563v227h252v-227h-252zM838 1563v227h252v-227h-252z" />
<glyph unicode="&#xd7;" horiz-adv-x="1052" d="M20 152l365 366l-365 363l142 141l364 -365l365 365l141 -141l-364 -363l364 -366l-141 -142l-365 365l-364 -365z" />
<glyph unicode="&#xd8;" horiz-adv-x="1525" d="M68 102l147 150q-147 200 -147 465q0 204 89 373t249 267.5t358 98.5q270 0 463 -180l141 143l107 -104l-152 -152q135 -196 135 -446q0 -205 -89 -374.5t-248.5 -268.5t-356.5 -99q-259 0 -449 166l-141 -145zM340 717q0 -147 70 -268l626 634q-117 117 -272 117 q-116 0 -213.5 -65.5t-154 -176.5t-56.5 -241zM506 334q118 -103 258 -103q174 0 298 143t124 343q0 135 -60 246z" />
<glyph unicode="&#xd9;" horiz-adv-x="1331" d="M119 563v858h270v-866q0 -317 277 -317q276 0 276 317v866h272v-858q0 -276 -141.5 -432t-406.5 -156t-406 156t-141 432zM279 1829h303l190 -289h-199z" />
<glyph unicode="&#xda;" horiz-adv-x="1331" d="M119 563v858h270v-866q0 -317 277 -317q276 0 276 317v866h272v-858q0 -276 -141.5 -432t-406.5 -156t-406 156t-141 432zM573 1540l191 289h303l-295 -289h-199z" />
<glyph unicode="&#xdb;" horiz-adv-x="1331" d="M119 563v858h270v-866q0 -317 277 -317q276 0 276 317v866h272v-858q0 -276 -141.5 -432t-406.5 -156t-406 156t-141 432zM322 1540l227 291h244l225 -291h-221l-127 170l-125 -170h-223z" />
<glyph unicode="&#xdc;" horiz-adv-x="1331" d="M119 563v858h270v-866q0 -317 277 -317q276 0 276 317v866h272v-858q0 -276 -141.5 -432t-406.5 -156t-406 156t-141 432zM360 1563v227h252v-227h-252zM745 1563v227h252v-227h-252z" />
<glyph unicode="&#xdd;" horiz-adv-x="1218" d="M-4 1421h305l305 -602h6l306 602h305l-480 -876v-545h-270v545zM520 1532l191 297h293l-287 -297h-197z" />
<glyph unicode="&#xde;" horiz-adv-x="1249" d="M131 0v1421h270v-184h328q221 0 345 -124t124 -335q0 -202 -127.5 -329t-337.5 -127h-332v-322h-270zM401 571h326q96 0 148.5 51t52.5 156t-52.5 156t-148.5 51h-326v-414z" />
<glyph unicode="&#xdf;" horiz-adv-x="1208" d="M123 0v1059q0 192 133.5 328.5t335.5 136.5q204 0 334.5 -123.5t130.5 -298.5q0 -185 -135 -295q109 -49 167 -145.5t58 -221.5q0 -215 -126 -341t-335 -126q-101 0 -192 37v252q74 -31 176 -31q98 0 152.5 59.5t54.5 153.5q0 89 -60.5 144t-154.5 55h-168v252h118 q72 0 123 46.5t51 139.5q0 86 -51 136.5t-141 50.5q-87 0 -143 -61t-56 -156v-1051h-272z" />
<glyph unicode="&#xe0;" horiz-adv-x="1191" d="M63 322q0 69 23.5 122.5t61.5 87t96 57t117 34.5t135 18q75 7 123 14.5t92 20.5t65 35t21 53q0 43 -52.5 71.5t-140.5 28.5q-79 0 -146 -35t-85 -98h-271q21 153 156.5 251.5t339.5 98.5q88 0 160 -16t119 -40.5t82 -59t53.5 -67t29.5 -69.5t14 -61t3 -47v-549 q0 -81 31 -172h-248q-18 41 -27 98q-112 -118 -323 -118q-85 0 -161.5 21.5t-136.5 63t-95.5 108t-35.5 149.5zM266 1481h301l191 -289h-199zM336 319q0 -45 48.5 -72.5t129.5 -27.5q130 0 211.5 47.5t81.5 143.5v98q-75 -48 -256 -68q-108 -11 -161.5 -38.5t-53.5 -82.5z " />
<glyph unicode="&#xe1;" horiz-adv-x="1191" d="M63 322q0 69 23.5 122.5t61.5 87t96 57t117 34.5t135 18q75 7 123 14.5t92 20.5t65 35t21 53q0 43 -52.5 71.5t-140.5 28.5q-79 0 -146 -35t-85 -98h-271q21 153 156.5 251.5t339.5 98.5q88 0 160 -16t119 -40.5t82 -59t53.5 -67t29.5 -69.5t14 -61t3 -47v-549 q0 -81 31 -172h-248q-18 41 -27 98q-112 -118 -323 -118q-85 0 -161.5 21.5t-136.5 63t-95.5 108t-35.5 149.5zM336 319q0 -45 48.5 -72.5t129.5 -27.5q130 0 211.5 47.5t81.5 143.5v98q-75 -48 -256 -68q-108 -11 -161.5 -38.5t-53.5 -82.5zM444 1192l191 289h303 l-295 -289h-199z" />
<glyph unicode="&#xe2;" horiz-adv-x="1191" d="M63 322q0 69 23.5 122.5t61.5 87t96 57t117 34.5t135 18q75 7 123 14.5t92 20.5t65 35t21 53q0 43 -52.5 71.5t-140.5 28.5q-79 0 -146 -35t-85 -98h-271q21 153 156.5 251.5t339.5 98.5q88 0 160 -16t119 -40.5t82 -59t53.5 -67t29.5 -69.5t14 -61t3 -47v-549 q0 -81 31 -172h-248q-18 41 -27 98q-112 -118 -323 -118q-85 0 -161.5 21.5t-136.5 63t-95.5 108t-35.5 149.5zM250 1192l227 291h242l227 -291h-221l-127 170l-125 -170h-223zM336 319q0 -45 48.5 -72.5t129.5 -27.5q130 0 211.5 47.5t81.5 143.5v98q-75 -48 -256 -68 q-108 -11 -161.5 -38.5t-53.5 -82.5z" />
<glyph unicode="&#xe3;" horiz-adv-x="1191" d="M63 322q0 69 23.5 122.5t61.5 87t96 57t117 34.5t135 18q75 7 123 14.5t92 20.5t65 35t21 53q0 43 -52.5 71.5t-140.5 28.5q-79 0 -146 -35t-85 -98h-271q21 153 156.5 251.5t339.5 98.5q88 0 160 -16t119 -40.5t82 -59t53.5 -67t29.5 -69.5t14 -61t3 -47v-549 q0 -81 31 -172h-248q-18 41 -27 98q-112 -118 -323 -118q-85 0 -161.5 21.5t-136.5 63t-95.5 108t-35.5 149.5zM231 1206q15 103 72.5 173.5t153.5 70.5q65 0 156 -39t124 -39q35 0 55.5 20t32.5 66h127q-13 -103 -68.5 -173.5t-146.5 -70.5q-64 0 -157.5 38t-128.5 38 q-73 0 -93 -84h-127zM336 319q0 -45 48.5 -72.5t129.5 -27.5q130 0 211.5 47.5t81.5 143.5v98q-75 -48 -256 -68q-108 -11 -161.5 -38.5t-53.5 -82.5z" />
<glyph unicode="&#xe4;" horiz-adv-x="1191" d="M63 322q0 69 23.5 122.5t61.5 87t96 57t117 34.5t135 18q75 7 123 14.5t92 20.5t65 35t21 53q0 43 -52.5 71.5t-140.5 28.5q-79 0 -146 -35t-85 -98h-271q21 153 156.5 251.5t339.5 98.5q88 0 160 -16t119 -40.5t82 -59t53.5 -67t29.5 -69.5t14 -61t3 -47v-549 q0 -81 31 -172h-248q-18 41 -27 98q-112 -118 -323 -118q-85 0 -161.5 21.5t-136.5 63t-95.5 108t-35.5 149.5zM276 1212v228h250v-228h-250zM336 319q0 -45 48.5 -72.5t129.5 -27.5q130 0 211.5 47.5t81.5 143.5v98q-75 -48 -256 -68q-108 -11 -161.5 -38.5t-53.5 -82.5z M662 1212v228h249v-228h-249z" />
<glyph unicode="&#xe5;" horiz-adv-x="1191" d="M63 322q0 69 23.5 122.5t61.5 87t96 57t117 34.5t135 18q75 7 123 14.5t92 20.5t65 35t21 53q0 43 -52.5 71.5t-140.5 28.5q-79 0 -146 -35t-85 -98h-271q21 153 156.5 251.5t339.5 98.5q88 0 160 -16t119 -40.5t82 -59t53.5 -67t29.5 -69.5t14 -61t3 -47v-549 q0 -81 31 -172h-248q-18 41 -27 98q-112 -118 -323 -118q-85 0 -161.5 21.5t-136.5 63t-95.5 108t-35.5 149.5zM336 319q0 -45 48.5 -72.5t129.5 -27.5q130 0 211.5 47.5t81.5 143.5v98q-75 -48 -256 -68q-108 -11 -161.5 -38.5t-53.5 -82.5zM377 1397q0 90 63.5 153.5 t153.5 63.5q91 0 154 -63t63 -154q0 -90 -63.5 -153.5t-153.5 -63.5q-89 0 -153 64t-64 153zM498 1397q0 -41 28 -71t68 -30q41 0 69.5 29.5t28.5 71.5q0 43 -28.5 72.5t-69.5 29.5q-40 0 -68 -29.5t-28 -72.5z" />
<glyph unicode="&#xe6;" horiz-adv-x="1939" d="M63 322q0 68 21.5 121.5t60.5 87.5t84 57.5t102.5 36.5t103.5 20t99 13q4 0 7 0.5t6 0.5q140 14 175 23q85 20 85 70q0 41 -55 67.5t-140 26.5q-47 0 -90 -9t-83.5 -36.5t-53.5 -69.5h-283q21 153 158 251.5t344 98.5q267 0 389 -137q69 64 160 100.5t190 36.5 q118 0 220.5 -44.5t177.5 -126t111 -208.5t20 -280h-793q27 -94 98.5 -147.5t163.5 -53.5q70 0 129 29.5t97 85.5h286q-47 -164 -182 -262.5t-328 -98.5q-123 0 -230 52.5t-177 144.5q-114 -192 -422 -192q-85 0 -164 22t-144 63t-104 107.5t-39 149.5zM326 315 q0 -41 52.5 -69.5t133.5 -28.5q137 0 223 50.5t86 150.5v74q-77 -45 -241 -60q-132 -11 -193 -37.5t-61 -79.5zM1085 649h519q-29 87 -100 137t-163 50q-87 0 -156 -50.5t-100 -136.5z" />
<glyph unicode="&#xe7;" horiz-adv-x="1169" d="M61 524q0 152 69.5 279.5t195 202.5t280.5 75q191 0 327 -101.5t183 -279.5h-291q-31 55 -89 87t-130 32q-112 0 -191 -86.5t-79 -208.5q0 -119 79 -203.5t191 -84.5q74 0 132 32t89 88h289q-44 -176 -175.5 -277t-319.5 -106l-50 -79q34 15 74.5 11.5t75.5 -17.5 t58.5 -48.5t23.5 -81.5q0 -76 -51.5 -120t-137.5 -44q-52 0 -105 24.5t-91 62.5l37 63q58 -55 145 -55q37 0 61.5 17t24.5 48q0 28 -22.5 48t-59.5 20q-41 0 -72 -27l-73 49l69 136q-206 28 -336.5 181.5t-130.5 362.5z" />
<glyph unicode="&#xe8;" horiz-adv-x="1198" d="M61 526q0 150 73 278t197.5 202.5t270.5 74.5q117 0 219.5 -45t177 -127t111.5 -208.5t23 -278.5h-797q26 -97 97.5 -153t166.5 -56q71 0 131 31t92 92h289q-47 -164 -182 -262.5t-328 -98.5q-146 0 -270.5 73.5t-197.5 200.5t-73 277zM221 1481h301l191 -289h-199z M340 643h524q-25 92 -96 146.5t-168 54.5q-92 0 -161.5 -54t-98.5 -147z" />
<glyph unicode="&#xe9;" horiz-adv-x="1198" d="M61 526q0 150 73 278t197.5 202.5t270.5 74.5q117 0 219.5 -45t177 -127t111.5 -208.5t23 -278.5h-797q26 -97 97.5 -153t166.5 -56q71 0 131 31t92 92h289q-47 -164 -182 -262.5t-328 -98.5q-146 0 -270.5 73.5t-197.5 200.5t-73 277zM340 643h524q-25 92 -96 146.5 t-168 54.5q-92 0 -161.5 -54t-98.5 -147zM510 1192l190 289h304l-295 -289h-199z" />
<glyph unicode="&#xea;" horiz-adv-x="1198" d="M61 526q0 150 73 278t197.5 202.5t270.5 74.5q117 0 219.5 -45t177 -127t111.5 -208.5t23 -278.5h-797q26 -97 97.5 -153t166.5 -56q71 0 131 31t92 92h289q-47 -164 -182 -262.5t-328 -98.5q-146 0 -270.5 73.5t-197.5 200.5t-73 277zM252 1192l227 291h242l227 -291 h-221l-127 170l-125 -170h-223zM340 643h524q-25 92 -96 146.5t-168 54.5q-92 0 -161.5 -54t-98.5 -147z" />
<glyph unicode="&#xeb;" horiz-adv-x="1198" d="M61 526q0 150 73 278t197.5 202.5t270.5 74.5q117 0 219.5 -45t177 -127t111.5 -208.5t23 -278.5h-797q26 -97 97.5 -153t166.5 -56q71 0 131 31t92 92h289q-47 -164 -182 -262.5t-328 -98.5q-146 0 -270.5 73.5t-197.5 200.5t-73 277zM283 1212v228h249v-228h-249z M340 643h524q-25 92 -96 146.5t-168 54.5q-92 0 -161.5 -54t-98.5 -147zM668 1212v228h250v-228h-250z" />
<glyph unicode="&#xec;" horiz-adv-x="530" d="M-94 1481h301l190 -289h-198zM129 0v1055h270v-1055h-270z" />
<glyph unicode="&#xed;" horiz-adv-x="530" d="M129 0v1055h270v-1055h-270zM141 1192l191 289h303l-295 -289h-199z" />
<glyph unicode="&#xee;" horiz-adv-x="530" d="M-82 1192l227 291h242l227 -291h-221l-127 170l-125 -170h-223zM129 0v1055h270v-1055h-270z" />
<glyph unicode="&#xef;" horiz-adv-x="530" d="M-47 1212v228h250v-228h-250zM129 0v1055h270v-1055h-270zM338 1212v228h250v-228h-250z" />
<glyph unicode="&#xf0;" horiz-adv-x="1202" d="M68 512q0 102 30 191.5t80.5 153.5t115 110.5t134 69t137.5 22.5q94 0 172 -35q-78 114 -188 197l-152 -111l-112 70l155 112q-78 44 -141 64l201 151q76 -37 133 -73l127 94l112 -70l-135 -100q185 -154 283 -373t98 -459q0 -242 -152 -399.5t-372 -157.5 q-108 0 -205 42t-167.5 113.5t-112 172.5t-41.5 215zM336 512q0 -130 75 -214.5t183 -84.5t183 84.5t75 214.5q0 131 -75 217t-183 86t-183 -86t-75 -217z" />
<glyph unicode="&#xf1;" horiz-adv-x="1181" d="M123 0v1055h258v-103q110 129 272 129q186 0 299 -128t113 -337v-616h-270v616q0 23 -3 45.5t-15 54t-32 54t-58 39t-89 16.5q-90 0 -147.5 -59.5t-57.5 -149.5v-616h-270zM248 1206q15 103 72 173.5t153 70.5q65 0 156.5 -39t124.5 -39q35 0 55.5 20t32.5 66h127 q-13 -103 -68.5 -173.5t-146.5 -70.5q-64 0 -158 38t-129 38q-72 0 -92 -84h-127z" />
<glyph unicode="&#xf2;" horiz-adv-x="1185" d="M61 526q0 155 71.5 282.5t193 200t266.5 72.5t267 -72.5t193.5 -200.5t71.5 -282t-71.5 -281t-193.5 -198.5t-267 -71.5t-266.5 71.5t-193 198.5t-71.5 281zM207 1481h301l190 -289h-198zM332 524q0 -131 75.5 -216t184.5 -85t184.5 85t75.5 216q0 135 -75.5 222.5 t-184.5 87.5t-184.5 -87.5t-75.5 -222.5z" />
<glyph unicode="&#xf3;" horiz-adv-x="1185" d="M61 526q0 155 71.5 282.5t193 200t266.5 72.5t267 -72.5t193.5 -200.5t71.5 -282t-71.5 -281t-193.5 -198.5t-267 -71.5t-266.5 71.5t-193 198.5t-71.5 281zM332 524q0 -131 75.5 -216t184.5 -85t184.5 85t75.5 216q0 135 -75.5 222.5t-184.5 87.5t-184.5 -87.5 t-75.5 -222.5zM502 1192l190 289h303l-295 -289h-198z" />
<glyph unicode="&#xf4;" horiz-adv-x="1185" d="M61 526q0 155 71.5 282.5t193 200t266.5 72.5t267 -72.5t193.5 -200.5t71.5 -282t-71.5 -281t-193.5 -198.5t-267 -71.5t-266.5 71.5t-193 198.5t-71.5 281zM252 1192l227 291h242l227 -291h-221l-127 170l-125 -170h-223zM332 524q0 -131 75.5 -216t184.5 -85t184.5 85 t75.5 216q0 135 -75.5 222.5t-184.5 87.5t-184.5 -87.5t-75.5 -222.5z" />
<glyph unicode="&#xf5;" horiz-adv-x="1185" d="M61 526q0 155 71.5 282.5t193 200t266.5 72.5t267 -72.5t193.5 -200.5t71.5 -282t-71.5 -281t-193.5 -198.5t-267 -71.5t-266.5 71.5t-193 198.5t-71.5 281zM231 1206q15 103 72.5 173.5t153.5 70.5q65 0 156 -39t124 -39q35 0 55.5 20t32.5 66h127 q-13 -103 -68.5 -173.5t-146.5 -70.5q-64 0 -157.5 38t-128.5 38q-73 0 -93 -84h-127zM332 524q0 -131 75.5 -216t184.5 -85t184.5 85t75.5 216q0 135 -75.5 222.5t-184.5 87.5t-184.5 -87.5t-75.5 -222.5z" />
<glyph unicode="&#xf6;" horiz-adv-x="1185" d="M61 526q0 155 71.5 282.5t193 200t266.5 72.5t267 -72.5t193.5 -200.5t71.5 -282t-71.5 -281t-193.5 -198.5t-267 -71.5t-266.5 71.5t-193 198.5t-71.5 281zM276 1212v228h250v-228h-250zM332 524q0 -131 75.5 -216t184.5 -85t184.5 85t75.5 216q0 135 -75.5 222.5 t-184.5 87.5t-184.5 -87.5t-75.5 -222.5zM662 1212v228h249v-228h-249z" />
<glyph unicode="&#xf7;" horiz-adv-x="458" d="M94 578v268h271v-268h-271z" />
<glyph unicode="&#xf8;" horiz-adv-x="1185" d="M61 524q0 113 42 216t113.5 178t170 119t207.5 44q182 0 326 -118l94 94l104 -101l-98 -100q104 -145 104 -332q0 -149 -71 -276t-193 -201t-266 -74q-185 0 -330 119l-94 -94l-102 102l96 99q-103 150 -103 325zM328 524q0 -70 28 -131l379 383q-66 47 -141 47 q-110 0 -188 -87.5t-78 -211.5zM449 279q68 -48 145 -48q109 0 186.5 86.5t77.5 206.5q0 74 -31 138z" />
<glyph unicode="&#xf9;" horiz-adv-x="1179" d="M115 438v617h270v-617q0 -22 3.5 -44.5t15.5 -53.5t32 -53.5t58 -39t88 -16.5q90 0 147 59t57 148v617h271v-1055h-258v96q-105 -121 -269 -121q-187 0 -301 127.5t-114 335.5zM213 1481h301l191 -289h-199z" />
<glyph unicode="&#xfa;" horiz-adv-x="1179" d="M115 438v617h270v-617q0 -22 3.5 -44.5t15.5 -53.5t32 -53.5t58 -39t88 -16.5q90 0 147 59t57 148v617h271v-1055h-258v96q-105 -121 -269 -121q-187 0 -301 127.5t-114 335.5zM502 1192l190 289h303l-295 -289h-198z" />
<glyph unicode="&#xfb;" horiz-adv-x="1179" d="M115 438v617h270v-617q0 -22 3.5 -44.5t15.5 -53.5t32 -53.5t58 -39t88 -16.5q90 0 147 59t57 148v617h271v-1055h-258v96q-105 -121 -269 -121q-187 0 -301 127.5t-114 335.5zM238 1192l227 291h242l227 -291h-221l-127 170l-125 -170h-223z" />
<glyph unicode="&#xfc;" horiz-adv-x="1179" d="M115 438v617h270v-617q0 -22 3.5 -44.5t15.5 -53.5t32 -53.5t58 -39t88 -16.5q90 0 147 59t57 148v617h271v-1055h-258v96q-105 -121 -269 -121q-187 0 -301 127.5t-114 335.5zM274 1212v228h250v-228h-250zM659 1212v228h250v-228h-250z" />
<glyph unicode="&#xfd;" horiz-adv-x="1091" d="M2 1055h289l250 -707h6l252 707h291l-469 -1248q-30 -80 -69.5 -137.5t-81.5 -90t-94 -50t-99 -21.5t-105 0v248q77 -3 120 27t77 119l34 98zM471 1233l191 295h294l-284 -295h-201z" />
<glyph unicode="&#xfe;" horiz-adv-x="1277" d="M133 -469v1890h273v-465q126 123 309 123q102 0 194.5 -42.5t160 -115t107.5 -175t40 -216.5q0 -233 -147 -393t-355 -160q-184 0 -309 125v-571h-273zM406 530q0 -125 79 -213t191 -88q113 0 191.5 86.5t78.5 214.5q0 125 -78.5 211t-191.5 86q-112 0 -191 -87t-79 -210 z" />
<glyph unicode="&#xff;" horiz-adv-x="1089" d="M2 1055h287l258 -762l252 762h288l-466 -1248q-30 -80 -68.5 -137t-83 -89.5t-97.5 -50.5t-111.5 -20t-125.5 1v245q103 -6 157 25.5t87 120.5l31 80zM221 1212v228h250v-228h-250zM606 1212v228h250v-228h-250z" />
<glyph unicode="&#x152;" horiz-adv-x="2299" d="M68 717q0 204 88.5 373t248.5 267.5t359 98.5q250 0 420 -164v129h1038v-252h-768v-303h655v-252h-655v-362h784v-252h-1054v139q-170 -164 -420 -164q-199 0 -359 99t-248.5 268.5t-88.5 374.5zM338 717q0 -130 57 -242t155 -178t214 -66q168 0 290 135t130 326v47 q-8 191 -130 326t-290 135q-176 0 -301 -142t-125 -341z" />
<glyph unicode="&#x153;" horiz-adv-x="1978" d="M61 526q0 150 71 278t193.5 202.5t266.5 74.5q120 0 222.5 -52t164.5 -142q70 90 176 142t227 52q117 0 219.5 -44.5t177.5 -126t111.5 -208.5t20.5 -280h-795q27 -94 98.5 -147.5t163.5 -53.5q148 0 228 115h284q-47 -164 -181.5 -262.5t-326.5 -98.5q-121 0 -227 51 t-176 140q-62 -89 -164.5 -140t-222.5 -51q-108 0 -206.5 43.5t-169.5 117t-113 176t-42 214.5zM332 526q0 -120 76 -204t184 -84q109 0 185.5 84t76.5 204t-77 206.5t-185 86.5q-107 0 -183.5 -86.5t-76.5 -206.5zM1122 649h518q-27 87 -98.5 137t-163.5 50 q-87 0 -156 -50.5t-100 -136.5z" />
<glyph unicode="&#x178;" horiz-adv-x="1218" d="M-4 1421h305l307 -608l310 608h305l-478 -876v-545h-272v545zM305 1563v227h252v-227h-252zM690 1563v227h252v-227h-252z" />
<glyph unicode="&#x2c6;" horiz-adv-x="854" d="M74 1192l227 291h242l227 -291h-221l-127 170l-125 -170h-223z" />
<glyph unicode="&#x2dc;" horiz-adv-x="854" d="M63 1206q15 103 72.5 173.5t153.5 70.5q65 0 156 -39t124 -39q35 0 55.5 20t32.5 66h127q-13 -103 -68.5 -173.5t-146.5 -70.5q-64 0 -157.5 38t-128.5 38q-73 0 -93 -84h-127z" />
<glyph unicode="&#x2000;" horiz-adv-x="979" />
<glyph unicode="&#x2001;" horiz-adv-x="1958" />
<glyph unicode="&#x2002;" horiz-adv-x="979" />
<glyph unicode="&#x2003;" horiz-adv-x="1958" />
<glyph unicode="&#x2004;" horiz-adv-x="652" />
<glyph unicode="&#x2005;" horiz-adv-x="489" />
<glyph unicode="&#x2006;" horiz-adv-x="326" />
<glyph unicode="&#x2007;" horiz-adv-x="326" />
<glyph unicode="&#x2008;" horiz-adv-x="244" />
<glyph unicode="&#x2009;" horiz-adv-x="391" />
<glyph unicode="&#x200a;" horiz-adv-x="108" />
<glyph unicode="&#x2010;" horiz-adv-x="677" d="M61 442v252h555v-252h-555z" />
<glyph unicode="&#x2011;" horiz-adv-x="677" d="M61 442v252h555v-252h-555z" />
<glyph unicode="&#x2012;" horiz-adv-x="677" d="M61 442v252h555v-252h-555z" />
<glyph unicode="&#x2013;" horiz-adv-x="1241" d="M63 442v252h1115v-252h-1115z" />
<glyph unicode="&#x2014;" horiz-adv-x="1947" d="M63 442v252h1821v-252h-1821z" />
<glyph unicode="&#x2018;" horiz-adv-x="415" d="M70 862v277q0 126 68 199t181 85v-114q-118 -27 -118 -164v-25h145v-258h-276z" />
<glyph unicode="&#x2019;" horiz-adv-x="415" d="M70 1163v258h276v-276q0 -125 -68.5 -198.5t-181.5 -84.5v115q59 12 89 55t30 109v22h-145z" />
<glyph unicode="&#x201a;" horiz-adv-x="409" d="M70 2v258h276v-276q0 -125 -68.5 -198.5t-181.5 -84.5v115q59 12 89 55t30 109v22h-145z" />
<glyph unicode="&#x201c;" horiz-adv-x="872" d="M70 862v277q0 126 68 199t181 85v-114q-118 -27 -118 -164v-25h145v-258h-276zM526 862v277q0 126 68.5 198.5t181.5 85.5v-114q-119 -27 -119 -164v-25h146v-258h-277z" />
<glyph unicode="&#x201d;" horiz-adv-x="872" d="M70 1163v258h276v-276q0 -125 -68.5 -198.5t-181.5 -84.5v115q59 12 89 55t30 109v22h-145zM526 1163v258h277v-276q0 -125 -68.5 -198.5t-181.5 -84.5v115q59 12 89 55t30 109v22h-146z" />
<glyph unicode="&#x201e;" horiz-adv-x="866" d="M70 0v258h276v-276q0 -125 -68.5 -198.5t-181.5 -84.5v115q59 12 89 54.5t30 108.5v23h-145zM526 0v258h277v-276q0 -125 -68.5 -198.5t-181.5 -84.5v115q59 12 89 54.5t30 108.5v23h-146z" />
<glyph unicode="&#x2022;" horiz-adv-x="641" d="M102 748q0 90 64 153.5t156 63.5q89 0 153 -64t64 -153q0 -92 -63.5 -156t-153.5 -64q-92 0 -156 64t-64 156z" />
<glyph unicode="&#x2026;" horiz-adv-x="1769" d="M94 0v289h291v-289h-291zM739 0v289h291v-289h-291zM1384 0v289h291v-289h-291z" />
<glyph unicode="&#x202f;" horiz-adv-x="391" />
<glyph unicode="&#x2039;" horiz-adv-x="430" d="M47 512v203l324 278v-215l-205 -164l205 -168v-215z" />
<glyph unicode="&#x203a;" horiz-adv-x="430" d="M59 231v215l205 168l-205 164v215l326 -278v-203z" />
<glyph unicode="&#x205f;" horiz-adv-x="489" />
<glyph unicode="&#x2122;" horiz-adv-x="1884" d="M72 1231v190h649v-190h-223v-703h-203v703h-223zM825 528v893h260l218 -649l219 649h260v-893h-195v541l-178 -541h-213l-176 539v-539h-195z" />
<glyph unicode="&#x25fc;" horiz-adv-x="1054" d="M0 0v1055h1055v-1055h-1055z" />
</font>
</defs>
</svg>
