<?xml version="1.0" encoding="utf-8"?>
<!-- Generator: Adobe Illustrator 18.0.0, SVG Export Plug-In . SVG Version: 6.00 Build 0)  -->
<!DOCTYPE svg PUBLIC "-//W3C//DTD SVG 1.1//EN" "http://www.w3.org/Graphics/SVG/1.1/DTD/svg11.dtd">
<svg xmlns="http://www.w3.org/2000/svg" version="1.1" width="50" height="50"><svg xmlns:xlink="http://www.w3.org/1999/xlink" version="1.1" id="Capa_1" x="0" y="0" viewBox="0 0 54.3 54.3" enable-background="new 0 0 54.3 54.3" xml:space="preserve" width="50" height="50">
<g opacity="0.6">
	<path fill="#FFFFFF" d="M46.3,7.9v19.2c0,10.5-8.6,19.1-19.1,19.1S8,37.7,8,27.1S16.6,8,27.2,8c4.3,0,8.3,1.4,11.5,3.8V2.5   C35.1,0.9,31.2,0,27.2,0C12.2,0,0,12.2,0,27.2c0,15,12.2,27.2,27.2,27.2c15,0,27.2-12.2,27.2-27.2C54.3,19.6,51.2,12.8,46.3,7.9z"/>
	<path fill="#79CCD7" d="M27.3,22.3c2,0,3.7,1.1,4.6,2.8h6.5c-1.1-5.1-5.7-8.9-11.2-8.9c-6.3,0-11.5,5.1-11.5,11.5   C15.8,33.9,21,39,27.3,39c5.5,0,10-3.8,11.2-8.9h-6.5c-0.9,1.6-2.6,2.8-4.6,2.8c-2.9,0-5.3-2.4-5.3-5.3   C22,24.6,24.4,22.3,27.3,22.3z"/>
</g>
</svg></svg>
